<svg width="24" height="24" viewBox="0 0 24 24" fill="none" xmlns="http://www.w3.org/2000/svg">
<path d="M5.28914 18.711C4.89861 18.3205 4.9162 17.6697 5.32842 17.2575L17.2707 5.31527C17.6829 4.90305 18.3336 4.88546 18.7242 5.27598C19.1147 5.66651 19.0971 6.31726 18.6849 6.72948L6.74264 18.6717C6.33042 19.0839 5.67966 19.1015 5.28914 18.711Z" fill="#C2D2F4"/>
<path d="M5.28914 18.711C4.89861 18.3205 4.9162 17.6697 5.32842 17.2575L17.2707 5.31527C17.6829 4.90305 18.3336 4.88546 18.7242 5.27598C19.1147 5.66651 19.0971 6.31726 18.6849 6.72948L6.74264 18.6717C6.33042 19.0839 5.67966 19.1015 5.28914 18.711Z" fill="#B7C6E7"/>
<path d="M5.28899 5.28902C5.67951 4.89849 6.33028 4.9161 6.74253 5.32834L18.6855 17.2713C19.0977 17.6835 19.1153 18.3343 18.7248 18.7248C18.3343 19.1153 17.6835 19.0977 17.2712 18.6855L5.32831 6.74256C4.91607 6.33031 4.89846 5.67954 5.28899 5.28902Z" fill="#C2D2F4"/>
<path d="M5.28899 5.28902C5.67951 4.89849 6.33028 4.9161 6.74253 5.32834L18.6855 17.2713C19.0977 17.6835 19.1153 18.3343 18.7248 18.7248C18.3343 19.1153 17.6835 19.0977 17.2712 18.6855L5.32831 6.74256C4.91607 6.33031 4.89846 5.67954 5.28899 5.28902Z" fill="#B7C6E7"/>
</svg>
