<svg width="16" height="16" viewBox="0 0 16 16" fill="none" xmlns="http://www.w3.org/2000/svg">
<path fill-rule="evenodd" clip-rule="evenodd" d="M7 14C10.866 14 14 10.866 14 7C14 3.13401 10.866 0 7 0C3.13401 0 0 3.13401 0 7C0 10.866 3.13401 14 7 14ZM7 12.6667C10.2217 12.6667 12.6667 10.2217 12.6667 7C12.6667 3.77834 10.2217 1.33333 7 1.33333C3.77834 1.33333 1.33333 3.77834 1.33333 7C1.33333 10.2217 3.77834 12.6667 7 12.6667Z" fill="#2B6BF3"/>
<path d="M7.33337 10L10.6667 8.66668V5.33334L7.33337 6.51256V10Z" fill="#2B6BF3"/>
<path d="M6.66663 10L3.33329 8.66668V5.33334L6.66663 6.51256V10Z" fill="#2B6BF3"/>
<path d="M7.00004 3.33334L3.33337 4.66668L7.00004 6.00001L10.6667 4.66668L7.00004 3.33334Z" fill="#2B6BF3"/>
<path d="M11.9523 11L16 15.0477L15.0477 16L11 11.9523L11.9523 11Z" fill="#2B6BF3"/>
</svg>
