<svg width="44" height="46" viewBox="0 0 44 46" fill="none" xmlns="http://www.w3.org/2000/svg">
<path fill-rule="evenodd" clip-rule="evenodd" d="M34.8679 29.8868C34.8679 32.3773 34.0377 41.5094 10.3773 41.5094L10.3773 39.0189C30.717 39.0189 32.3773 32.3774 32.3773 29.8868L34.8679 29.8868Z" fill="#C2D2F4"/>
<path fill-rule="evenodd" clip-rule="evenodd" d="M34.8679 29.8868C34.8679 32.3773 34.0377 41.5094 10.3773 41.5094L10.3773 39.0189C30.717 39.0189 32.3773 32.3774 32.3773 29.8868L34.8679 29.8868Z" fill="#B7C6E7"/>
<path fill-rule="evenodd" clip-rule="evenodd" d="M37.9197 10.3361C37.9326 10.2883 37.9333 10.2857 37.9333 10.3261C37.9333 7.95719 36.0033 6.0368 33.6227 6.0368C31.242 6.0368 29.3121 7.95719 29.3121 10.3261C29.3121 10.2857 29.3127 10.2883 29.3257 10.3361C29.3658 10.4848 29.5242 11.0711 30.1477 12.1684C30.8809 13.4585 31.9387 14.9059 33.12 16.3355C33.2875 16.5382 33.4554 16.738 33.6227 16.9342C33.79 16.738 33.9578 16.5382 34.1253 16.3355C35.3066 14.9059 36.3645 13.4585 37.0976 12.1684C37.7212 11.0711 37.8795 10.4848 37.9197 10.3361ZM33.6227 25.7358C33.6227 25.7358 44 16.0291 44 10.3261C44 4.62316 39.3539 0 33.6227 0C27.8914 0 23.2453 4.62316 23.2453 10.3261C23.2453 16.0291 33.6227 25.7358 33.6227 25.7358Z" fill="#C2D2F4"/>
<path fill-rule="evenodd" clip-rule="evenodd" d="M37.9197 10.3361C37.9326 10.2883 37.9333 10.2857 37.9333 10.3261C37.9333 7.95719 36.0033 6.0368 33.6227 6.0368C31.242 6.0368 29.3121 7.95719 29.3121 10.3261C29.3121 10.2857 29.3127 10.2883 29.3257 10.3361C29.3658 10.4848 29.5242 11.0711 30.1477 12.1684C30.8809 13.4585 31.9387 14.9059 33.12 16.3355C33.2875 16.5382 33.4554 16.738 33.6227 16.9342C33.79 16.738 33.9578 16.5382 34.1253 16.3355C35.3066 14.9059 36.3645 13.4585 37.0976 12.1684C37.7212 11.0711 37.8795 10.4848 37.9197 10.3361ZM33.6227 25.7358C33.6227 25.7358 44 16.0291 44 10.3261C44 4.62316 39.3539 0 33.6227 0C27.8914 0 23.2453 4.62316 23.2453 10.3261C23.2453 16.0291 33.6227 25.7358 33.6227 25.7358Z" fill="#B7C6E7"/>
<path fill-rule="evenodd" clip-rule="evenodd" d="M14.6744 20.2984C14.6873 20.2505 14.688 20.248 14.688 20.2884C14.688 17.9195 12.758 15.9991 10.3774 15.9991C7.99668 15.9991 6.06676 17.9195 6.06676 20.2884C6.06676 20.248 6.06744 20.2505 6.08036 20.2984C6.12051 20.447 6.27886 21.0334 6.9024 22.1307C7.63556 23.4208 8.6934 24.8682 9.87472 26.2978C10.0422 26.5005 10.2101 26.7002 10.3774 26.8965C10.5447 26.7002 10.7125 26.5005 10.88 26.2978C12.0613 24.8682 13.1192 23.4208 13.8523 22.1307C14.4759 21.0334 14.6342 20.447 14.6744 20.2984ZM10.3774 35.6981C10.3774 35.6981 20.7547 25.9913 20.7547 20.2884C20.7547 14.5854 16.1086 9.96228 10.3774 9.96228C4.6461 9.96228 0 14.5854 0 20.2884C0 25.9913 10.3774 35.6981 10.3774 35.6981Z" fill="#C2D2F4"/>
<path fill-rule="evenodd" clip-rule="evenodd" d="M14.6744 20.2984C14.6873 20.2505 14.688 20.248 14.688 20.2884C14.688 17.9195 12.758 15.9991 10.3774 15.9991C7.99668 15.9991 6.06676 17.9195 6.06676 20.2884C6.06676 20.248 6.06744 20.2505 6.08036 20.2984C6.12051 20.447 6.27886 21.0334 6.9024 22.1307C7.63556 23.4208 8.6934 24.8682 9.87472 26.2978C10.0422 26.5005 10.2101 26.7002 10.3774 26.8965C10.5447 26.7002 10.7125 26.5005 10.88 26.2978C12.0613 24.8682 13.1192 23.4208 13.8523 22.1307C14.4759 21.0334 14.6342 20.447 14.6744 20.2984ZM10.3774 35.6981C10.3774 35.6981 20.7547 25.9913 20.7547 20.2884C20.7547 14.5854 16.1086 9.96228 10.3774 9.96228C4.6461 9.96228 0 14.5854 0 20.2884C0 25.9913 10.3774 35.6981 10.3774 35.6981Z" fill="#B7C6E7"/>
</svg>
