<svg width="446" height="712" viewBox="0 0 446 712" fill="none" xmlns="http://www.w3.org/2000/svg">
<path d="M417.4 128H338.2C324.857 128 314 117.143 314 103.8C314 90.27 325.11 79.2106 338.761 79.6066C338.387 78.1766 338.2 76.7048 338.2 75.2C338.2 65.4958 346.096 57.6 355.8 57.6C357.703 57.6 359.564 57.9058 361.359 58.5108C366.877 47.1962 378.284 40 391 40C408.725 40 423.23 54.0448 423.969 71.5876C436.841 74.5994 446 86.013 446 99.4C446 115.17 433.17 128 417.4 128Z" fill="white"/>
<path d="M417.4 128H338.2C324.857 128 314 117.143 314 103.8C314 90.27 325.11 79.2106 338.761 79.6066C338.387 78.1766 338.2 76.7048 338.2 75.2C338.2 65.4958 346.096 57.6 355.8 57.6C357.703 57.6 359.564 57.9058 361.359 58.5108C366.877 47.1962 378.284 40 391 40C408.725 40 423.23 54.0448 423.969 71.5876C436.841 74.5994 446 86.013 446 99.4C446 115.17 433.17 128 417.4 128ZM338.2 84C327.284 84 318.4 92.8814 318.4 103.8C318.4 114.719 327.284 123.6 338.2 123.6H417.4C430.743 123.6 441.6 112.743 441.6 99.4C441.6 87.5442 433.112 77.521 421.417 75.563C420.344 75.3826 419.563 74.4454 419.58 73.3564C419.58 73.3146 419.593 73.088 419.596 73.044C419.6 57.2304 406.77 44.4 391 44.4C379.342 44.4 368.954 51.3806 364.532 62.1826C364.303 62.7436 363.85 63.1858 363.282 63.4036C362.717 63.6258 362.083 63.595 361.538 63.331C359.716 62.4466 357.787 62 355.8 62C348.52 62 342.6 67.9202 342.6 75.2C342.6 77.2812 343.084 79.2876 344.037 81.1642C344.415 81.9078 344.34 82.801 343.843 83.472C343.346 84.143 342.523 84.4796 341.691 84.3278C340.451 84.1078 339.309 84 338.2 84Z" fill="#D0DEFD"/>
<path d="M443.8 101.6C442.586 101.6 441.6 100.617 441.6 99.4C441.6 86.057 430.743 75.2 417.4 75.2C404.057 75.2 393.2 86.057 393.2 99.4C393.2 100.617 392.214 101.6 391 101.6C389.786 101.6 388.8 100.617 388.8 99.4C388.8 83.6304 401.63 70.8 417.4 70.8C433.17 70.8 446 83.6304 446 99.4C446 100.617 445.014 101.6 443.8 101.6Z" fill="#D0DEFD"/>
<path d="M362.22 86.1978C361.335 86.1978 360.499 85.661 360.165 84.781C358.728 81.0212 358 77.059 358 73C358 54.8038 372.804 40 391 40C392.214 40 393.2 40.9834 393.2 42.2C393.2 43.4166 392.214 44.4 391 44.4C375.23 44.4 362.4 57.2304 362.4 73C362.4 76.52 363.031 79.9542 364.277 83.2146C364.71 84.3498 364.142 85.6214 363.007 86.0548C362.748 86.1516 362.481 86.1978 362.22 86.1978Z" fill="#D0DEFD"/>
<path d="M33.7791 200C21.8054 200 13.1223 209.713 12.4862 220.336C5.2372 222.788 0 229.598 0 237.655C0 247.764 8.23264 256 18.3372 256H64.6628C75.3209 256 83 248.685 83 239.586C83 232.431 78.3244 225.501 71.2376 223.565C70.7764 217.975 68.0344 213.67 64.2104 211.375C60.5202 209.16 55.9898 208.775 51.9051 210.228C48.428 204.527 42.0632 200 33.7791 200Z" fill="white"/>
<path d="M33.7791 200C21.8054 200 13.1223 209.713 12.4862 220.336C5.2372 222.788 0 229.598 0 237.655C0 247.764 8.23264 256 18.3372 256H64.6628C75.3209 256 83 248.685 83 239.586C83 232.431 78.3244 225.501 71.2376 223.565C70.7764 217.975 68.0344 213.67 64.2104 211.375C60.5202 209.16 55.9898 208.775 51.9051 210.228C48.428 204.527 42.0632 200 33.7791 200ZM33.7791 203.862C41.2756 203.862 46.84 208.21 49.4321 213.397C49.5445 213.625 49.7008 213.829 49.8921 213.996C50.0835 214.164 50.3061 214.292 50.5471 214.373C50.7881 214.455 51.0428 214.488 51.2966 214.47C51.5503 214.453 51.7981 214.385 52.0258 214.272C55.2821 212.643 59.1632 212.829 62.2199 214.664C65.2765 216.499 67.5581 219.9 67.5581 225.103C67.5585 225.558 67.719 225.997 68.0113 226.345C68.3037 226.693 68.7092 226.926 69.1566 227.004C74.9558 227.978 79.1395 233.767 79.1395 239.586C79.1395 246.573 73.6327 252.138 64.6628 252.138H18.3372C10.319 252.138 3.86047 245.677 3.86047 237.655C3.86047 230.868 8.51107 225.213 14.7783 223.625C15.1979 223.517 15.5688 223.27 15.8314 222.925C16.094 222.581 16.233 222.158 16.226 221.724C16.1392 212.661 23.457 203.862 33.7791 203.862Z" fill="#D0DEFD"/>
<path d="M163 451L167 402.5L160.5 399.5L154 392.5L157 375L172 338.5L154 317.5L156 290L147.5 269.5L135 260.5L138 237.5L153 206L143 155V128L136 110.5L133 102.5V84.5L137.5 81.5L136 68.5L125 67.5L122 59V42.5L139 41L133 29.5L137.5 13L142.5 16.5L150 4L153.5 13L159 8.5V30.5L155.5 40L160 42.5H170.5V63.5L157.5 70.5V86.5L164.5 102.5L162.5 128L173 177L176 190.5L182 212.5L195.5 230.5L199 223L195.5 197L179 190.5L198 190L202.5 183L183.5 159.5L213.5 178.5L220.5 174.5L224.5 139.5L232.5 177H239L259.5 154L247 184.5L254 188.5L283.5 184.5L258.5 194.5L256 203L276 211.5H256L254 223.5L256 248L263 271.5L282 287L290 318.5L308.5 332.5L323 313.5L358 332.5L349 349L352.5 360L338.5 384.5L327 390L317.5 429.5L304 438L310.5 519L302 523L307.5 590.5L298 600.5L309.5 661.5L324.5 671.5V686.5L334.5 688.5V708.5L253 712L117 707V688.5H126.5V671.5L144 661.5L151.5 655L160.5 645.5L167 510L163 451Z" fill="white"/>
<path d="M205.362 219.083C205.343 219.083 205.324 219.083 205.305 219.083C206.104 219.694 206.903 220.306 207.702 220.917C207.687 220.808 207.594 220.12 207.683 220.785C207.658 220.595 207.633 220.406 207.609 220.216C207.563 219.862 207.517 219.508 207.472 219.154C207.061 219.873 206.651 220.593 206.241 221.311C206.406 221.225 206.571 221.139 206.738 221.055C205.492 220.336 204.245 219.616 202.998 218.897C202.879 219.79 202.834 220.682 202.878 221.581C202.944 222.941 203.958 224.08 205.363 224.08C206.668 224.08 207.914 222.943 207.848 221.581C207.805 220.682 207.849 219.79 207.969 218.897C208.081 218.058 207.416 217.14 206.738 216.74C205.936 216.268 205.036 216.33 204.23 216.74C204.063 216.824 203.898 216.91 203.732 216.997C203.04 217.36 202.399 218.343 202.502 219.154C202.633 220.185 202.77 221.216 202.91 222.246C203.057 223.327 204.313 224.08 205.307 224.08C205.326 224.08 205.344 224.08 205.363 224.08C206.718 224.08 207.848 222.943 207.848 221.581C207.848 220.219 206.716 219.083 205.362 219.083Z" fill="#BFD2FA"/>
<path d="M265.882 270.611C262.233 267.339 258.156 264.282 253.623 262.383C251.201 261.368 248.667 260.684 246.028 260.979C242.921 261.325 242.038 263.41 240.093 265.574C238.636 267.195 237.37 269.366 235.514 269.133C233.45 268.875 231.386 268.617 229.323 268.36C225.953 267.938 222.584 267.517 219.215 267.095C219.801 267.34 220.387 267.584 220.972 267.827C218.717 265.423 217.011 262.662 215.468 259.757C213.694 256.418 212.943 251.846 210.615 248.949C205.731 242.873 201.065 236.618 196.545 230.264C196.545 231.105 196.545 231.945 196.545 232.786C198.323 229.192 200.439 225.966 203.399 223.241C202.814 223.484 202.228 223.729 201.642 223.973C202.863 224.008 204.085 224.044 205.307 224.08C204.508 223.469 203.709 222.857 202.91 222.246C203.883 228.875 204.953 236.316 209.176 241.729C212.737 246.294 221.516 248.629 227.033 248.629C232.919 248.629 242.173 245.74 245.478 240.501C249.262 234.502 250.188 226.822 251.097 219.919C250.489 220.722 249.881 221.525 249.273 222.328C250.724 222.007 252.174 221.686 253.626 221.364C252.606 220.783 251.588 220.201 250.568 219.62C251.27 224.397 252.03 229.168 252.986 233.902C253.584 236.865 254.037 241.16 256.623 243.12C256.327 241.981 256.029 240.841 255.732 239.701C255.247 240.736 254.286 243.299 253.184 243.722C251.598 244.331 250.973 245.836 251.698 247.392C255.569 255.685 259.204 264.232 261.729 273.043C262.615 276.133 267.412 274.818 266.522 271.715C263.88 262.498 260.039 253.546 255.991 244.87C255.496 246.094 255 247.317 254.505 248.541C257.242 247.49 258.823 244.787 260.023 242.224C260.654 240.876 260.289 239.683 259.131 238.805C259.907 239.394 258.85 237.125 258.69 236.543C258.171 234.645 257.797 232.705 257.421 230.775C256.613 226.636 255.973 222.462 255.36 218.291C255.155 216.894 253.498 216.281 252.303 216.546C250.852 216.867 249.401 217.188 247.95 217.51C246.775 217.77 246.267 218.843 246.126 219.919C245.401 225.422 244.532 231.319 242.133 236.371C239.842 241.194 232.003 243.493 227.033 243.632C222.198 243.768 216.202 241.489 212.69 238.196C210.685 236.317 210.028 232.382 209.381 229.846C208.633 226.913 208.14 223.911 207.702 220.918C207.54 219.815 206.31 219.114 205.305 219.084C203.649 219.036 201.229 218.472 199.884 219.709C196.633 222.7 194.207 226.313 192.253 230.266C191.879 231.022 191.724 232.044 192.253 232.788C195.837 237.827 199.533 242.782 203.313 247.675C204.396 249.076 205.49 250.469 206.594 251.854C208.072 253.707 208.718 257.03 209.727 259.296C211.676 263.673 214.176 267.863 217.458 271.363C218.768 272.76 222.892 272.554 224.581 272.765C227.949 273.187 231.318 273.608 234.686 274.029C238.283 274.479 240.337 272.369 242.903 269.848C243.758 269.008 244.53 268.081 245.285 267.151C245.621 266.714 245.956 266.277 246.291 265.84C246.888 265.057 246.788 265.123 245.99 266.04C248.054 265.345 250.654 266.464 252.499 267.317C256.114 268.986 259.411 271.495 262.368 274.147C264.751 276.282 268.279 272.761 265.882 270.611Z" fill="#BFD2FA"/>
<path d="M232.304 174.022C227.998 173.403 223.845 173.405 219.539 174.022C220.588 174.825 221.636 175.628 222.685 176.431C223.983 163.974 225.28 151.516 226.578 139.059C224.951 139.28 223.324 139.502 221.697 139.724C224.213 152.181 226.73 164.638 229.247 177.096C229.885 180.252 234.676 178.913 234.04 175.767C231.523 163.31 229.006 150.853 226.49 138.395C225.89 135.424 221.879 136.456 221.608 139.06C220.31 151.517 219.013 163.975 217.715 176.432C217.529 178.219 219.431 179.046 220.861 178.841C224.215 178.361 227.629 178.359 230.983 178.841C234.116 179.291 235.466 174.477 232.304 174.022Z" fill="#BFD2FA"/>
<path d="M258.183 152.321C253.432 161.934 248.681 171.546 243.929 181.159C245.063 180.861 246.196 180.562 247.33 180.263C244.682 178.337 241.859 176.902 238.82 175.713C239.185 177.105 239.55 178.497 239.916 179.889C247.306 171.709 254.696 163.529 262.087 155.349C264.237 152.97 260.732 149.425 258.573 151.815C251.183 159.995 243.793 168.176 236.402 176.356C235.061 177.84 235.74 179.843 237.498 180.532C240.132 181.562 242.534 182.914 244.821 184.578C245.868 185.338 247.66 184.817 248.221 183.682C252.972 174.068 257.724 164.456 262.476 154.843C263.897 151.967 259.61 149.435 258.183 152.321Z" fill="#BFD2FA"/>
<path d="M211.122 176.49C207.73 177.982 204.719 179.929 201.945 182.389C203.116 182.389 204.288 182.389 205.459 182.389C198.382 174.003 191.304 165.617 184.227 157.23C183.223 158.538 182.219 159.846 181.215 161.154C191.184 167.704 201.153 174.254 211.122 180.803C213.814 182.572 216.302 178.244 213.631 176.489C203.661 169.939 193.692 163.389 183.723 156.839C181.22 155.195 178.981 158.713 180.711 160.763C187.789 169.149 194.867 177.536 201.944 185.922C202.86 187.007 204.509 186.765 205.459 185.922C207.919 183.741 210.633 182.123 213.63 180.804C216.562 179.515 214.029 175.211 211.122 176.49Z" fill="#BFD2FA"/>
<path d="M279.427 210.16C270.682 209.518 261.933 208.913 253.191 208.233C253.99 209.287 254.789 210.341 255.587 211.396C256.33 208.917 257.083 206.442 257.831 203.965C256.812 204.546 255.793 205.127 254.774 205.709C262.772 208.829 270.769 211.948 278.766 215.068C281.759 216.235 283.042 211.402 280.088 210.249C272.09 207.13 264.092 204.01 256.095 200.891C254.807 200.388 253.4 201.435 253.038 202.635C252.289 205.112 251.537 207.588 250.794 210.066C250.298 211.719 251.63 213.108 253.19 213.229C261.933 213.91 270.682 214.515 279.427 215.157C282.627 215.392 282.605 210.393 279.427 210.16Z" fill="#BFD2FA"/>
<path d="M306.046 332.386C300.792 341.892 295.537 351.397 290.283 360.903C291.827 361.324 293.37 361.744 294.913 362.165C294.843 345.361 293.662 328.466 290.564 311.939C289.05 312.581 287.536 313.223 286.022 313.864C287.07 315.493 288.096 317.133 289.085 318.798C289.686 319.809 290.162 321.35 291.044 322.144C292.291 323.266 293.553 324.368 294.82 325.467C297.073 327.421 299.361 329.335 301.701 331.184C302.651 331.933 303.614 332.664 304.592 333.376C305.093 333.74 305.61 334.082 306.129 334.419C305.171 333.798 305.396 333.084 305.794 334.312C306.786 337.36 311.585 336.055 310.587 332.983C309.91 330.901 308.83 330.283 307.101 329.061C304.658 327.337 302.373 325.375 300.093 323.443C298.383 321.994 296.696 320.517 295.021 319.025C294.438 318.507 294.345 317.998 293.939 317.257C292.828 315.231 291.562 313.285 290.314 311.342C288.737 308.89 285.253 310.504 285.772 313.267C288.786 329.353 289.874 345.809 289.943 362.164C289.954 364.612 293.358 365.626 294.574 363.425C299.828 353.92 305.083 344.414 310.337 334.908C311.896 332.089 307.602 329.57 306.046 332.386Z" fill="#BFD2FA"/>
<path d="M323.287 390.639C322.968 400.437 321.91 410.446 318.716 419.754C317.292 423.903 314.894 429.165 310.478 430.791C308.654 431.464 307.031 430.966 305.554 432.45C304.07 433.943 302.586 435.435 301.102 436.927C302.515 437.516 303.93 438.104 305.344 438.694C304.08 428.197 302.721 417.712 301.257 407.242C300.04 408.182 298.823 409.124 297.606 410.064C301.819 412.628 306.032 415.194 310.246 417.759C311.398 418.46 312.979 418.029 313.646 416.862C318.403 408.541 323.16 400.221 327.918 391.899C329.518 389.1 325.223 386.585 323.626 389.377C318.869 397.698 314.112 406.018 309.354 414.34C310.488 414.042 311.62 413.743 312.754 413.444C308.541 410.879 304.328 408.313 300.115 405.749C298.051 404.492 296.181 406.547 296.464 408.57C297.866 418.598 299.162 428.64 300.373 438.693C300.62 440.746 302.941 442.144 304.616 440.46C306.273 438.795 307.929 437.129 309.586 435.463C309.001 435.707 308.415 435.952 307.829 436.195C317.494 436.121 322.014 426.295 324.408 418.269C327.056 409.396 327.956 399.869 328.257 390.638C328.363 387.414 323.391 387.425 323.287 390.639Z" fill="#BFD2FA"/>
<path d="M351.587 338.22C352.077 338.96 352.568 339.7 353.057 340.44C353.057 339.599 353.057 338.759 353.057 337.918C350.771 341.915 348.485 345.913 346.198 349.91C347.5 349.742 348.801 349.573 350.101 349.405C347.721 346.671 344.017 340.551 339.564 343.174C336.936 344.721 336.845 347.706 338.116 350.121C339.36 352.484 344.8 355.367 343.053 358.59C344.354 358.422 345.655 358.254 346.956 358.085C343.193 354.157 329.807 346.077 328.381 356.325C329.18 355.714 329.979 355.102 330.777 354.491C326.5 354.984 323.798 358.199 325.172 362.551C325.749 361.526 326.329 360.502 326.907 359.477C324.826 359.781 323.369 361.1 322.59 362.996C321.56 365.5 323.861 367.935 325.557 369.373C328.514 371.878 330.553 374.844 328.673 378.641C327.248 381.523 325.852 384.432 324.598 387.394C323.807 389.265 324.758 390.888 326.744 391.154C326.796 391.161 326.848 391.168 326.9 391.175C326.185 389.921 325.47 388.669 324.755 387.415C319.6 396.379 314.486 405.365 309.354 414.342C310.488 414.043 311.621 413.744 312.755 413.445C300.633 406.065 288.514 398.677 276.393 391.295C276.69 392.435 276.988 393.573 277.285 394.713C291.366 369.237 305.446 343.761 319.525 318.283C318.391 318.581 317.259 318.881 316.125 319.179C317.225 319.795 318.327 320.412 319.426 321.028C321.215 322.029 322.949 320.716 323.166 318.871C323.413 316.779 323.658 314.688 323.905 312.596C322.658 313.315 321.412 314.034 320.165 314.753C332.529 321.52 344.894 328.287 357.258 335.055C357.09 333.747 356.922 332.438 356.755 331.131C355.162 332.485 353.569 333.838 351.977 335.192C349.526 337.275 353.059 340.792 355.491 338.726C357.084 337.372 358.677 336.018 360.269 334.664C361.483 333.633 361.094 331.467 359.767 330.74C347.402 323.973 335.038 317.206 322.674 310.439C320.88 309.457 319.153 310.736 318.934 312.596C318.687 314.688 318.442 316.779 318.195 318.871C319.442 318.152 320.688 317.432 321.935 316.713C320.835 316.097 319.733 315.481 318.633 314.865C317.47 314.214 315.9 314.553 315.233 315.76C301.154 341.237 287.075 366.715 272.993 392.191C272.327 393.396 272.709 394.893 273.885 395.609C286.005 402.992 298.124 410.378 310.246 417.759C311.398 418.46 312.979 418.029 313.646 416.862C318.778 407.886 323.893 398.9 329.047 389.936C330.086 388.13 328.701 386.418 326.901 386.177C326.849 386.169 326.798 386.162 326.745 386.156C327.461 387.409 328.176 388.662 328.891 389.916C331.179 384.51 336.025 378.63 333.98 372.547C333.093 369.905 331.111 367.657 329.072 365.839C328.485 365.315 327.853 364.833 327.216 364.373C327.3 364.433 327.185 364.625 327.474 364.455C327.667 364.343 328.005 364.328 328.229 364.295C329.537 364.103 330.336 362.4 329.964 361.221C329.738 360.501 329.408 360.001 330.217 359.682C330.43 359.598 331.825 359.366 330.777 359.487C331.776 359.371 333.01 358.82 333.173 357.653C333.48 355.443 334.748 356.432 336.561 357.072C339.091 357.966 341.584 359.68 343.44 361.618C344.53 362.756 346.584 362.514 347.344 361.112C349.382 357.35 348.41 353.345 345.115 350.611C344.149 349.81 343.144 348.609 342.407 347.599C342.169 347.273 342.258 347.949 342.48 348.206C343.844 349.787 345.215 351.363 346.586 352.938C347.647 354.158 349.729 353.761 350.489 352.433C352.775 348.435 355.061 344.438 357.348 340.441C357.772 339.699 357.835 338.655 357.348 337.919C356.858 337.178 356.368 336.438 355.878 335.699C354.113 333.029 349.806 335.529 351.587 338.22Z" fill="#BFD2FA"/>
<path d="M241.77 263.615C236.135 270.565 228.397 275.063 220.972 267.827C218.646 265.56 216.979 262.603 215.468 259.757C213.519 256.087 212.692 251.539 210.109 248.318C210.322 249.128 210.535 249.939 210.748 250.749C211.399 247.106 212.049 243.463 212.7 239.821C211.316 240.188 209.931 240.555 208.547 240.923C212.458 245.936 220.857 248.629 227.033 248.629C233.649 248.629 242.412 245.359 246.043 239.603C244.499 239.182 242.955 238.762 241.412 238.341C240.882 247.342 240.896 256.369 241.042 265.382C241.094 268.6 246.064 268.606 246.012 265.382C245.867 256.369 245.851 247.342 246.382 238.341C246.536 235.739 243.002 235.096 241.751 237.08C239.059 241.349 231.701 243.631 226.849 243.631C221.918 243.631 215.158 241.357 212.062 237.388C210.942 235.953 208.219 236.749 207.908 238.491C207.286 241.977 206.663 245.464 206.039 248.95C205.932 249.551 205.788 250.136 205.956 250.748C206.143 251.433 206.671 251.945 207.101 252.481C207.436 252.899 207.814 254.748 208.047 255.341C209.455 258.932 211.118 262.42 213.13 265.71C216.61 271.402 221.666 276.298 228.57 276.816C235.248 277.316 241.381 271.962 245.285 267.148C247.29 264.675 243.796 261.117 241.77 263.615Z" fill="#BFD2FA"/>
<path d="M243.925 277.232C243.063 277.31 242.202 277.389 241.34 277.467C241.758 279.019 242.176 280.571 242.594 282.123C243.436 281.51 244.277 280.897 245.123 280.289C243.876 279.57 242.63 278.85 241.383 278.131C241.401 278.665 241.42 279.197 241.44 279.73C241.491 281.091 242.532 282.229 243.925 282.229C245.241 282.229 246.461 281.092 246.41 279.73C246.39 279.197 246.372 278.665 246.353 278.131C246.323 277.242 245.898 276.431 245.123 275.974C244.41 275.554 243.318 275.467 242.614 275.974C241.77 276.582 240.927 277.195 240.086 277.809C239.172 278.475 238.626 279.468 238.944 280.63C239.217 281.629 240.253 282.563 241.34 282.464C242.202 282.386 243.063 282.307 243.925 282.229C245.273 282.106 246.41 281.185 246.41 279.73C246.409 278.462 245.277 277.109 243.925 277.232Z" fill="#BFD2FA"/>
<path d="M290.283 360.903C289.951 361.506 289.619 362.108 289.288 362.709C290.802 362.908 292.316 363.108 293.83 363.306C289.021 341.323 281.648 319.994 272.278 299.563C267.54 289.23 262.632 278.171 255.231 269.469C254.554 268.673 253.075 268.477 252.22 269.078C251.475 269.601 250.736 270.131 249.996 270.66C250.102 270.768 250.209 270.877 250.315 270.986C249.866 270.987 249.448 271.101 249.06 271.327C248.392 271.807 247.719 272.282 247.05 272.762C245.412 273.937 241.383 275.714 241.383 278.131C241.793 277.412 242.202 276.693 242.613 275.974C228.89 285.884 215.502 296.225 202.313 306.84C188.866 317.663 176.036 329.339 166.2 343.671C167.744 344.091 169.287 344.512 170.831 344.932C170.878 341.89 172.865 338.339 173.873 335.499C175.212 331.727 176.54 327.952 177.86 324.174C180.292 317.214 182.697 310.242 184.969 303.228C190.364 286.582 191.023 269.248 194.131 252.141C194.699 249.017 190.083 247.642 189.338 250.813C186.985 260.834 183.779 270.702 179.943 280.243C176.999 287.565 173.474 294.709 169.085 301.27C165.28 306.956 160.256 312.752 153.69 315.184C154.709 315.765 155.728 316.347 156.747 316.928C154.705 309.161 157.145 299.513 158.913 291.845C159.192 290.636 158.698 289.743 157.771 289.023C152.428 284.876 151.39 274.677 150.587 268.452C149.759 269.285 148.931 270.117 148.102 270.95C161.483 271.527 171.841 260.562 179.093 250.548C184.842 242.609 191.133 233.111 191.025 222.959C189.482 223.379 187.938 223.8 186.394 224.22C191.872 232.51 197.758 240.516 203.846 248.362C204.664 249.415 205.489 250.463 206.319 251.507C207.436 252.914 207.824 254.801 208.52 256.503C210.157 260.504 212.1 264.371 214.603 267.898C219.055 274.167 225.745 278.41 233.512 276.07C237.136 274.978 240.245 272.457 242.903 269.847C244.154 268.617 245.226 267.227 246.291 265.838C247.256 264.58 244.9 266.102 246.749 265.895C247.832 265.775 248.886 266.043 249.92 266.318C253.226 267.199 256.256 269.345 258.981 271.349C261.193 272.976 262.675 274.766 265.359 275.5C272.821 277.543 277.213 285.901 279.948 292.501C287.533 310.804 288.98 331.86 289.726 351.454C289.861 355.023 289.927 358.593 289.943 362.164C289.957 365.385 294.928 365.387 294.914 362.164C294.837 343.815 293.541 325.243 289.602 307.296C287.72 298.722 285.031 290.091 280.497 282.533C278.743 279.61 276.545 276.914 273.96 274.701C272.789 273.698 271.504 272.849 270.158 272.109C269.165 271.563 266.419 271.097 265.884 270.611C261.469 266.606 256.267 262.837 250.455 261.289C248.177 260.682 244.043 260.341 242.511 262.594C240.163 266.047 236.922 269.011 233.193 270.864C224.232 275.316 217.75 264.494 214.502 257.807C212.799 254.301 211.946 250.631 209.519 247.575C206.959 244.351 204.465 241.075 202.004 237.775C198.085 232.522 194.302 227.167 190.688 221.698C189.367 219.698 186.03 220.361 186.057 222.959C186.15 231.752 180.487 239.786 175.69 246.769C169.48 255.808 160.042 266.468 148.104 265.953C146.878 265.9 145.45 267.138 145.619 268.452C146.702 276.854 148.128 287.799 155.264 293.337C154.883 292.397 154.503 291.456 154.122 290.516C152.148 299.077 149.676 309.581 151.956 318.256C152.281 319.489 153.75 320.469 155.014 320.001C169.451 314.655 177.58 298.349 183.288 285.053C187.836 274.461 191.494 263.373 194.133 252.14C192.536 251.697 190.938 251.254 189.34 250.811C186.233 267.919 185.539 285.244 180.179 301.898C177.814 309.245 175.273 316.536 172.728 323.821C171.42 327.568 170.097 331.309 168.77 335.049C167.648 338.21 165.915 341.553 165.863 344.931C165.822 347.564 169.154 348.143 170.494 346.193C180.398 331.762 193.59 320.207 207.123 309.333C214.158 303.679 221.22 298.067 228.432 292.641C232.287 289.74 236.147 286.845 240.039 283.993C241.832 282.679 246.355 280.588 246.355 278.124C245.944 278.843 245.535 279.563 245.124 280.281C247.266 278.759 249.379 277.199 251.522 275.677C250.099 275.991 249.92 276.063 250.985 275.893C251.556 275.702 252.064 275.396 252.507 274.974C253.246 274.443 253.987 273.916 254.731 273.393C253.727 273.263 252.723 273.132 251.72 273.002C258.487 280.96 263.399 292.15 267.989 302.084C277.227 322.079 284.33 343.103 289.039 364.634C289.503 366.755 292.57 367.069 293.581 365.231C293.913 364.628 294.245 364.026 294.576 363.425C296.128 360.604 291.835 358.084 290.283 360.903Z" fill="#BFD2FA"/>
<path d="M189.34 250.813C186.282 267.645 185.656 284.757 180.419 301.153C175.94 315.175 170.937 329.038 165.972 342.891C167.6 343.113 169.226 343.334 170.854 343.556C170.504 337.235 167.754 331.561 164.248 326.407C162.79 324.264 161.149 322.233 159.448 320.28C158.505 319.197 157.204 318.242 156.749 316.929C156.17 317.954 155.591 318.978 155.013 320.003C169.451 314.658 177.579 298.351 183.287 285.055C187.835 274.463 191.493 263.375 194.133 252.142C194.868 249.008 190.076 247.677 189.34 250.813C186.986 260.834 183.78 270.702 179.944 280.243C177.001 287.565 173.476 294.709 169.086 301.27C165.282 306.956 160.258 312.752 153.691 315.184C152.489 315.629 151.482 316.892 151.956 318.257C153.048 321.408 155.715 323.47 157.784 326.012C161.798 330.942 165.523 337.053 165.883 343.556C166.043 346.437 169.813 346.875 170.765 344.22C175.643 330.61 180.513 316.985 184.971 303.229C190.366 286.583 191.025 269.248 194.133 252.142C194.704 248.99 189.915 247.646 189.34 250.813Z" fill="#BFD2FA"/>
<path d="M245.123 280.281C245.163 280.253 245.203 280.224 245.243 280.196C244.239 278.888 243.235 277.579 242.232 276.272C242.212 276.288 242.192 276.305 242.171 276.321C242.339 276.19 242.507 276.06 242.674 275.931C242.655 275.946 242.634 275.959 242.614 275.974C243.861 276.693 245.107 277.413 246.354 278.132C246.354 278.13 246.355 278.126 246.355 278.124C246.355 276.762 245.223 275.626 243.869 275.626C242.514 275.626 241.384 276.763 241.384 278.125C241.384 278.127 241.384 278.13 241.384 278.132C241.384 279.013 241.859 279.844 242.614 280.289C243.323 280.707 244.423 280.798 245.123 280.289C245.336 280.134 245.542 279.972 245.746 279.806C246.602 279.11 246.654 277.67 246.135 276.778C245.494 275.677 243.845 275.097 242.735 275.882C242.694 275.911 242.655 275.939 242.614 275.968C242.067 276.357 241.655 276.791 241.472 277.46C241.296 278.106 241.386 278.809 241.723 279.385C242.361 280.482 244.016 281.072 245.123 280.281Z" fill="#BFD2FA"/>
<path d="M249.011 271.363C248.361 271.834 247.709 272.301 247.051 272.763C247.888 274.201 248.723 275.639 249.56 277.077C250.212 276.609 250.863 276.14 251.52 275.678C252.627 274.899 253.138 273.507 252.411 272.259C251.769 271.156 250.124 270.581 249.011 271.363C248.354 271.825 247.704 272.295 247.051 272.763C246.505 273.154 246.093 273.585 245.909 274.255C245.733 274.9 245.824 275.604 246.16 276.18C246.803 277.284 248.447 277.858 249.56 277.077C250.217 276.616 250.87 276.148 251.52 275.677C252.066 275.283 252.479 274.857 252.662 274.185C252.838 273.539 252.748 272.836 252.411 272.259C251.775 271.168 250.113 270.566 249.011 271.363Z" fill="#BFD2FA"/>
<path d="M309.238 517.336C306.391 518.766 303.543 520.196 300.696 521.626C299.966 521.993 299.411 522.965 299.466 523.783C300.31 536.515 301.156 549.248 302 561.98C302.51 569.67 303.021 577.362 303.53 585.052C303.639 586.698 303.749 588.345 303.858 589.993C303.886 590.424 303.744 590.051 303.847 589.818C303.267 591.139 302.039 591.964 300.739 592.443C299.505 592.899 298.114 593.024 296.809 592.911C295.06 592.759 294.167 594.61 294.413 596.074C298.087 617.981 301.76 639.889 305.434 661.797C306.232 660.742 307.031 659.688 307.83 658.634C293.823 658.76 279.814 658.818 265.809 659.011C266.394 659.255 266.979 659.5 267.566 659.743C266.558 658.73 264.802 659.004 263.499 659.004C260.836 659.004 258.173 659.004 255.51 659.004C246.2 659.004 236.889 659.004 227.579 659.004C205.557 659.004 183.534 659.004 161.511 659.004C157.084 659.004 152.656 659.004 148.228 659.004C145.535 659.004 143.873 658.836 141.446 660.188C142.579 661.328 143.713 662.466 144.847 663.606C148.285 657.225 154.179 652.264 160.713 649.262C161.508 648.896 161.912 647.923 161.943 647.105C163.39 609.316 164.628 571.497 167.176 533.762C166.568 534.565 165.96 535.368 165.352 536.171C173.36 534.107 180.414 529.814 186.85 524.7C189.738 522.404 192.802 519.929 194.875 516.826C202.044 506.089 208.531 494.599 217.832 485.517C221.744 481.696 225.452 478.333 228.753 473.885C232.788 468.451 236.342 462.65 239.784 456.824C242.66 451.956 245.407 447.009 248.071 442.021C248.953 440.369 250.948 437.695 251.025 435.904C251.527 424.173 252.029 412.443 252.531 400.712C252.62 398.644 250.395 397.833 248.791 398.554C249.672 398.158 249.316 398.842 248.648 397.707C246.029 393.262 247.481 385.6 247.971 380.861C249.358 367.468 251.528 354.131 253.43 340.806C255.24 328.122 257.12 315.438 258.597 302.709C259.686 293.305 259.378 283.773 258.901 274.691C257.358 275.112 255.814 275.532 254.27 275.953C270.938 302.811 282.304 333.85 289.039 364.635C289.122 363.993 289.206 363.352 289.29 362.71C283.859 372.537 278.427 382.364 272.995 392.191C272.329 393.396 272.711 394.893 273.887 395.61C279.486 399.019 285.085 402.429 290.682 405.841C292.658 407.046 294.633 408.25 296.609 409.455C298.201 410.426 296.625 409.706 296.657 409.938C297.07 412.887 297.47 415.837 297.862 418.788C299.175 428.644 300.378 438.514 301.513 448.392C304.221 471.99 306.599 495.656 308.286 519.352C308.696 518.632 309.106 517.913 309.516 517.195C309.422 517.241 309.33 517.289 309.238 517.336C306.386 518.808 308.901 523.121 311.747 521.651C311.839 521.603 311.931 521.555 312.024 521.508C312.749 521.133 313.313 520.175 313.254 519.351C311.469 494.276 308.911 469.238 306.005 444.273C304.884 434.643 303.668 425.024 302.38 415.415C302.03 412.798 302.451 407.173 299.941 405.644C298.078 404.507 296.214 403.371 294.351 402.236C288.366 398.587 282.38 394.941 276.393 391.295C276.69 392.435 276.988 393.573 277.285 394.713C281.065 387.875 284.844 381.036 288.625 374.197C290.227 371.298 291.829 368.401 293.431 365.503C294.613 363.363 293.168 360.304 292.654 358.11C291.479 353.086 290.13 348.104 288.686 343.152C281.658 319.044 271.833 294.817 258.561 273.431C257.314 271.421 253.794 272.107 253.93 274.692C254.431 284.249 254.628 294.326 253.401 304.616C251.673 319.11 249.479 333.549 247.422 347.998C246.379 355.318 245.35 362.64 244.371 369.97C243.399 377.249 242.208 384.614 242.513 391.977C242.699 396.457 244.777 405.803 251.293 402.872C251.295 402.872 251.297 402.87 251.3 402.87C250.053 402.15 248.807 401.431 247.56 400.712C247.054 412.541 246.547 424.369 246.041 436.197C246.284 435.608 246.526 435.02 246.769 434.43C245.089 436.145 244.175 438.764 243.053 440.853C240.361 445.864 237.564 450.817 234.66 455.707C231.478 461.063 228.138 466.337 224.461 471.366C221.305 475.679 217.551 478.827 213.778 482.511C204.845 491.234 198.23 502.429 191.514 512.875C189.802 515.538 188.033 517.175 185.171 519.645C179.039 524.938 171.902 529.326 164.03 531.354C162.907 531.643 162.281 532.659 162.206 533.763C159.658 571.498 158.42 609.318 156.973 647.106C157.383 646.386 157.794 645.668 158.203 644.949C150.962 648.277 144.357 654.029 140.555 661.086C139.365 663.294 141.746 665.736 143.956 664.504C144.936 663.957 145.883 664.002 144.263 664.002C144.392 664.002 144.521 664.002 144.651 664.002C145.345 664.002 146.04 664.002 146.735 664.002C149.466 664.002 152.196 664.002 154.927 664.002C164.318 664.002 173.711 664.002 183.103 664.002C205.074 664.002 227.046 664.002 249.017 664.002C254.612 664.002 260.208 664.002 265.804 664.002C265.219 663.758 264.633 663.514 264.047 663.271C265.285 664.516 268.607 663.985 270.199 663.97C274.938 663.927 279.677 663.885 284.415 663.842C292.221 663.771 300.027 663.702 307.832 663.631C309.57 663.616 310.495 662.057 310.229 660.468C306.555 638.561 302.882 616.653 299.208 594.746C298.409 595.801 297.61 596.854 296.811 597.909C302.86 598.432 309.132 594.536 308.706 588.116C308.22 580.799 307.735 573.48 307.249 566.163C306.312 552.037 305.375 537.91 304.437 523.784C304.027 524.503 303.617 525.222 303.207 525.941C306.054 524.511 308.902 523.081 311.749 521.651C314.614 520.211 312.096 515.9 309.238 517.336Z" fill="#BFD2FA"/>
<path d="M283.559 181.454C273.695 185.817 263.831 190.181 253.967 194.544C255.184 195.042 256.401 195.539 257.618 196.037C256.988 192.919 255.829 190.118 254.159 187.421C253.664 188.644 253.168 189.868 252.673 191.091C263.607 189.401 274.541 187.711 285.474 186.021C288.634 185.533 287.287 180.718 284.153 181.203C273.219 182.893 262.285 184.583 251.352 186.273C249.766 186.518 249.088 188.686 249.867 189.943C251.324 192.294 252.278 194.655 252.825 197.366C253.175 199.093 255.114 199.462 256.476 198.859C266.34 194.496 276.204 190.132 286.068 185.769C288.996 184.474 286.463 180.17 283.559 181.454Z" fill="#BFD2FA"/>
<path d="M197.076 188.426C195.626 191.054 194.627 193.751 194.144 196.724C195.163 196.143 196.182 195.561 197.201 194.98C189.614 192.767 182.026 190.554 174.439 188.341C174.218 189.977 173.998 191.612 173.778 193.248C182.259 192.894 190.74 192.54 199.222 192.186C202.415 192.052 202.428 187.055 199.222 187.189C190.74 187.543 182.259 187.898 173.778 188.252C170.991 188.368 170.372 192.358 173.117 193.159C180.704 195.372 188.292 197.585 195.879 199.798C197.075 200.146 198.72 199.386 198.937 198.053C199.353 195.486 200.109 193.23 201.367 190.949C202.923 188.128 198.63 185.608 197.076 188.426Z" fill="#BFD2FA"/>
<path d="M205.362 219.083C205.343 219.083 205.324 219.083 205.305 219.083C206.104 219.694 206.903 220.306 207.702 220.917C207.687 220.808 207.594 220.12 207.683 220.785C207.658 220.595 207.633 220.406 207.609 220.216C207.563 219.862 207.517 219.508 207.472 219.154C207.061 219.873 206.651 220.593 206.241 221.311C206.406 221.225 206.571 221.139 206.738 221.055C205.492 220.336 204.245 219.616 202.998 218.897C202.879 219.79 202.834 220.682 202.878 221.581C202.944 222.941 203.958 224.08 205.363 224.08C206.668 224.08 207.914 222.943 207.848 221.581C207.805 220.682 207.849 219.79 207.969 218.897C208.081 218.058 207.416 217.14 206.738 216.74C205.936 216.268 205.036 216.33 204.23 216.74C204.063 216.824 203.898 216.91 203.732 216.997C203.04 217.36 202.399 218.343 202.502 219.154C202.633 220.185 202.77 221.216 202.91 222.246C203.057 223.327 204.313 224.08 205.307 224.08C205.326 224.08 205.344 224.08 205.363 224.08C206.718 224.08 207.848 222.943 207.848 221.581C207.848 220.219 206.716 219.083 205.362 219.083Z" fill="#BFD2FA"/>
<path d="M253.652 208.268C253.498 208.256 253.344 208.244 253.191 208.233C253.99 209.287 254.789 210.341 255.587 211.396C255.663 211.143 255.739 210.891 255.814 210.639C254.216 210.639 252.619 210.639 251.021 210.639C251.105 210.902 251.184 211.165 251.255 211.431C251.613 212.744 253.008 213.537 254.313 213.176C255.619 212.815 256.406 211.416 256.048 210.102C255.976 209.837 255.898 209.572 255.814 209.31C255.474 208.245 254.558 207.476 253.417 207.476C252.291 207.476 251.341 208.242 251.021 209.31C250.946 209.562 250.869 209.814 250.794 210.066C250.604 210.7 250.716 211.426 251.045 211.992C251.515 212.796 252.298 213.159 253.191 213.229C253.345 213.241 253.498 213.253 253.652 213.264C255.004 213.369 256.137 212.048 256.137 210.766C256.137 210.106 255.873 209.466 255.409 208.999C254.916 208.505 254.331 208.321 253.652 208.268Z" fill="#BFD2FA"/>
<path d="M253.006 199.981C252.912 202.993 252.222 205.631 250.881 208.321C252.396 208.52 253.91 208.719 255.423 208.918C247.918 182.066 203.938 182.066 196.432 208.918C197.946 208.719 199.461 208.52 200.975 208.321C193.058 192.987 208.393 180.205 222.449 178.646C235.751 177.17 252.587 184.79 253.006 199.981C253.094 203.197 258.065 203.206 257.976 199.981C257.459 181.232 237.272 171.494 220.657 173.864C212.11 175.083 203.42 179.177 198.362 186.464C193.245 193.837 192.551 202.837 196.684 210.843C197.698 212.809 200.666 212.249 201.226 210.246C207.401 188.155 244.456 188.155 250.631 210.246C251.184 212.227 254.182 212.834 255.173 210.843C256.904 207.371 257.855 203.869 257.976 199.981C258.076 196.757 253.106 196.767 253.006 199.981Z" fill="#BFD2FA"/>
<path d="M246.126 219.919C245.401 225.422 244.532 231.319 242.133 236.371C239.842 241.194 232.003 243.493 227.033 243.632C222.198 243.768 216.202 241.489 212.69 238.196C210.685 236.317 210.028 232.382 209.381 229.846C208.633 226.913 208.14 223.91 207.702 220.917C206.903 221.971 206.104 223.026 205.305 224.08C205.324 224.08 205.343 224.08 205.362 224.08C206.712 224.08 207.854 222.944 207.847 221.582C207.83 217.802 209.13 214.57 211.569 211.71C214.346 208.453 218.197 207.41 221.855 205.551C224.69 204.111 227.931 201.228 228.048 197.769C226.421 197.99 224.794 198.211 223.167 198.433C225.075 203.135 230.954 204.826 235.451 205.97C242.128 207.669 244.946 214.19 246.208 220.583C246.421 221.663 247.56 222.417 248.604 222.417C248.606 222.417 248.609 222.417 248.611 222.417C251.816 222.417 251.816 217.42 248.611 217.42C248.609 217.42 248.606 217.42 248.604 217.42C249.403 218.031 250.202 218.643 251 219.254C249.763 212.984 246.774 206.308 241.313 202.717C239.453 201.494 237.11 201.278 235.009 200.669C233.18 200.138 228.772 199.108 227.959 197.105C226.934 194.581 223.179 194.785 223.077 197.769C223.105 196.944 223.069 197.697 222.948 198.062C222.732 198.711 222.052 199.278 221.586 199.729C218.885 202.342 214.63 202.996 211.534 205.11C206.121 208.807 202.846 215.04 202.876 221.583C203.705 220.75 204.533 219.917 205.361 219.084C205.342 219.084 205.324 219.084 205.305 219.084C203.541 219.084 202.677 220.67 202.908 222.247C203.881 228.877 204.952 236.317 209.174 241.73C212.736 246.295 221.514 248.631 227.032 248.631C232.918 248.631 242.172 245.742 245.476 240.502C249.26 234.503 250.187 226.824 251.096 219.92C251.516 216.731 246.541 216.773 246.126 219.919Z" fill="#BFD2FA"/>
<path d="M254.646 216.031C253.714 216.235 252.782 216.439 251.85 216.645C251.061 216.82 250.271 216.994 249.482 217.169C249.172 217.238 247.293 217.419 248.604 217.419C249.403 218.03 250.202 218.642 251 219.253C249.763 212.982 246.774 206.307 241.313 202.715C239.453 201.493 237.11 201.277 235.009 200.667C233.18 200.136 228.772 199.107 227.959 197.103C226.934 194.579 223.179 194.784 223.077 197.768C223.097 197.182 223.152 197.358 223.039 197.784C222.888 198.36 222.446 198.843 222.06 199.27C219.81 201.76 216.149 202.456 213.285 203.982C210.526 205.453 208.33 207.732 206.448 210.187C205.56 211.344 204.882 212.671 204.325 214.015C204.08 214.564 203.865 215.123 203.68 215.695C203.415 216.443 202.612 217.576 203.732 216.997C203.04 217.355 202.397 218.348 202.501 219.155C202.635 220.186 202.771 221.216 202.91 222.247C203.708 221.192 204.506 220.139 205.305 219.084C203.12 219.021 200.937 218.957 198.752 218.898C199.551 219.509 200.35 220.121 201.149 220.732C200.338 217.213 200.46 213.397 201.028 209.861C199.514 210.059 198 210.258 196.486 210.458C196.552 210.586 196.618 210.715 196.684 210.843C197.698 212.809 200.666 212.249 201.226 210.246C207.401 188.155 244.456 188.155 250.631 210.246C251.184 212.227 254.182 212.834 255.173 210.843C255.227 210.734 255.283 210.624 255.337 210.515C253.823 210.316 252.309 210.116 250.795 209.918C250.954 209.565 250.953 209.615 250.794 210.066C250.298 211.719 251.632 213.108 253.192 213.229C253.346 213.242 253.499 213.254 253.652 213.265C252.854 212.654 252.054 212.042 251.255 211.431C251.968 213.96 252.5 216.51 252.911 219.105C253.413 222.28 258.202 220.927 257.703 217.777C257.293 215.182 256.761 212.631 256.048 210.102C255.729 208.969 254.773 208.355 253.652 208.268C253.498 208.256 253.344 208.244 253.191 208.233C253.99 209.287 254.789 210.342 255.588 211.396C255.899 210.358 255.919 209.642 255.588 208.59C254.981 206.658 252.061 205.958 251.046 207.993C250.992 208.103 250.937 208.213 250.883 208.322C252.397 208.521 253.911 208.72 255.425 208.919C247.92 182.066 203.94 182.066 196.434 208.919C197.948 208.72 199.462 208.521 200.976 208.322C200.91 208.193 200.843 208.065 200.777 207.936C199.842 206.124 196.58 206.383 196.235 208.533C195.519 212.995 195.333 217.624 196.356 222.062C196.609 223.16 197.678 223.866 198.752 223.896C200.937 223.955 203.121 224.017 205.306 224.081C207.089 224.133 207.908 222.456 207.702 220.918C207.625 220.331 207.549 219.743 207.472 219.156C207.061 219.875 206.651 220.594 206.241 221.313C207.414 220.706 207.802 220.007 208.027 218.718C208.357 216.822 209.206 215.115 210.201 213.494C212.482 209.777 216.104 208.176 219.89 206.487C223.347 204.945 227.902 202.108 228.049 197.769C226.421 197.991 224.795 198.212 223.167 198.434C225.076 203.136 230.955 204.827 235.452 205.971C242.128 207.669 244.947 214.191 246.208 220.584C246.421 221.663 247.56 222.418 248.605 222.418C250.97 222.418 253.643 221.361 255.968 220.851C259.098 220.164 257.77 215.347 254.646 216.031Z" fill="#BFD2FA"/>
<path d="M205.362 219.083C205.343 219.083 205.324 219.083 205.305 219.083C206.104 219.694 206.903 220.306 207.702 220.917C207.687 220.808 207.594 220.12 207.683 220.785C207.658 220.595 207.633 220.406 207.609 220.216C207.563 219.862 207.517 219.508 207.472 219.154C207.061 219.873 206.651 220.593 206.241 221.311C206.406 221.225 206.571 221.139 206.738 221.055C205.492 220.336 204.245 219.616 202.998 218.897C202.879 219.79 202.834 220.682 202.878 221.581C202.944 222.941 203.958 224.08 205.363 224.08C206.668 224.08 207.914 222.943 207.848 221.581C207.805 220.682 207.849 219.79 207.969 218.897C208.081 218.058 207.416 217.14 206.738 216.74C205.936 216.268 205.036 216.33 204.23 216.74C204.063 216.824 203.898 216.91 203.732 216.997C203.04 217.36 202.399 218.343 202.502 219.154C202.633 220.185 202.77 221.216 202.91 222.246C203.057 223.327 204.313 224.08 205.307 224.08C205.326 224.08 205.344 224.08 205.363 224.08C206.718 224.08 207.848 222.943 207.848 221.581C207.848 220.219 206.716 219.083 205.362 219.083Z" fill="#BFD2FA"/>
<path d="M154.601 68.1711C154.594 68.2924 154.586 68.4138 154.579 68.5351C155.408 67.7021 156.236 66.8698 157.064 66.0367C150.007 66.0367 142.949 66.0367 135.891 66.0367C136.719 66.8698 137.547 67.7021 138.376 68.5351C138.369 68.4138 138.362 68.2924 138.355 68.1711C137.526 69.0041 136.698 69.8365 135.87 70.6695C142.942 70.6695 150.014 70.6695 157.086 70.6695C160.291 70.6695 160.291 65.6727 157.086 65.6727C150.014 65.6727 142.942 65.6727 135.87 65.6727C134.576 65.6727 133.304 66.8105 133.384 68.1711C133.391 68.2924 133.399 68.4138 133.406 68.5351C133.486 69.8943 134.476 71.0336 135.891 71.0336C142.949 71.0336 150.007 71.0336 157.064 71.0336C158.48 71.0336 159.469 69.8943 159.55 68.5351C159.557 68.4138 159.564 68.2924 159.571 68.1711C159.761 64.951 154.79 64.9695 154.601 68.1711Z" fill="#BFD2FA"/>
<path d="M152.563 36.4197C152.563 38.3878 152.563 40.3551 152.563 42.3231C153.391 41.4901 154.219 40.6578 155.048 39.8247C149.417 39.8247 143.787 39.8247 138.156 39.8247C138.984 40.6578 139.812 41.4901 140.641 42.3231C140.641 40.3551 140.641 38.3878 140.641 36.4197C139.812 37.2528 138.984 38.0851 138.156 38.9181C143.787 38.9181 149.417 38.9181 155.048 38.9181C158.253 38.9181 158.253 33.9213 155.048 33.9213C149.417 33.9213 143.787 33.9213 138.156 33.9213C136.801 33.9213 135.671 35.0577 135.671 36.4197C135.671 38.3878 135.671 40.3551 135.671 42.3231C135.671 43.6851 136.801 44.8216 138.156 44.8216C143.787 44.8216 149.417 44.8216 155.048 44.8216C156.403 44.8216 157.533 43.6851 157.533 42.3231C157.533 40.3551 157.533 38.3878 157.533 36.4197C157.533 33.1975 152.563 33.1975 152.563 36.4197Z" fill="#BFD2FA"/>
<path d="M167.985 42.3231C167.985 45.5104 167.985 48.6977 167.985 51.8842C167.985 55.6105 168.958 61.2083 166.292 64.2057C167.593 65.2151 168.894 66.2245 170.195 67.2338C172.215 64.4906 172.593 61.5139 172.593 58.1988C172.593 56.8368 171.463 55.7004 170.108 55.7004C154.07 55.7004 138.033 55.7004 121.995 55.7004C122.824 56.5334 123.652 57.3658 124.48 58.1988C124.48 52.9065 124.48 47.6148 124.48 42.3231C123.652 43.1562 122.824 43.9885 121.995 44.8216C138.154 44.8216 154.312 44.8216 170.47 44.8216C173.675 44.8216 173.675 39.8247 170.47 39.8247C154.312 39.8247 138.154 39.8247 121.995 39.8247C120.64 39.8247 119.51 40.9611 119.51 42.3231C119.51 47.6155 119.51 52.9072 119.51 58.1988C119.51 59.5608 120.64 60.6972 121.995 60.6972C138.033 60.6972 154.07 60.6972 170.108 60.6972C169.279 59.8642 168.452 59.0319 167.623 58.1988C167.623 60.6715 167.43 62.6382 165.903 64.7119C164.215 67.004 167.943 69.835 169.806 67.7399C173.284 63.8281 172.955 59.4516 172.955 54.6032C172.955 50.5101 172.955 46.417 172.955 42.3231C172.955 39.1009 167.985 39.1009 167.985 42.3231Z" fill="#BFD2FA"/>
<path d="M138.814 34.0077C139.132 34.1205 139.117 34.159 138.607 33.8571C138.298 33.6743 137.87 33.326 137.562 32.9176C135.914 30.7383 136.178 27.7302 136.665 25.2118C137.631 20.2057 141.011 14.3786 138.463 9.31114C137.163 10.3205 135.861 11.3299 134.56 12.3392C136.746 14.1602 139.472 16.8128 139.708 19.8031C139.959 22.9746 144.648 23.0639 144.678 19.8031C144.707 16.7964 145.376 13.3643 147.386 11.0529C149.511 8.60801 152.481 6.60285 153.036 3.11434C151.439 3.11434 149.841 3.11434 148.244 3.11434C149.477 6.53717 150.511 10.2341 150.358 13.8961C150.283 15.6942 152.563 17.1398 154.098 16.0533C156.744 14.1795 159.484 11.8852 160.866 8.88069C159.352 8.23896 157.838 7.59722 156.324 6.95548C155.65 11.9366 155.708 17.0819 157.058 21.9453C157.978 25.2589 157.738 29.0365 156.008 32.0225C154.984 33.7907 155.24 33.9206 153.379 33.9206C151.354 33.9206 149.329 33.9206 147.303 33.9206C144.254 33.9206 141.203 33.9206 138.154 33.9206C134.949 33.9206 134.949 38.9174 138.154 38.9174C141.666 38.9174 145.18 38.9174 148.692 38.9174C152.845 38.9174 155.778 39.5884 158.89 36.4026C162.459 32.7485 162.86 27.2127 162.213 22.425C161.912 20.1957 161.185 18.0963 160.979 15.8334C160.83 14.1938 160.866 12.5362 160.927 10.8937C160.947 10.3619 161.206 7.62577 161.117 8.28464C161.459 5.75053 157.87 3.54121 156.575 6.35943C155.547 8.59302 153.568 10.3376 151.589 11.7396C152.835 12.4584 154.082 13.178 155.329 13.8968C155.5 9.80725 154.415 5.61062 153.037 1.7866C152.289 -0.287086 148.67 -0.88528 148.244 1.7866C147.658 5.46714 143.29 7.51584 141.664 10.7881C140.317 13.4992 139.736 16.7821 139.708 19.8031C141.365 19.8031 143.022 19.8031 144.678 19.8031C144.326 15.3552 141.409 11.5847 138.075 8.80645C135.911 7.00331 132.857 9.22048 134.172 11.8345C135.145 13.7712 133.768 17.4646 133.208 19.4355C132.126 23.2438 130.859 26.8807 131.536 30.9061C132.108 34.3075 134.132 37.634 137.493 38.8282C140.522 39.9025 141.815 35.0734 138.814 34.0077Z" fill="#BFD2FA"/>
<path d="M185.704 228.241C185.116 231.144 183.246 234.055 181.88 236.621C179.02 241.993 175.693 247.155 171.852 251.871C167.785 256.865 163.005 261.388 157.167 264.189C152.153 266.596 144.59 267.149 140.366 262.938C137.349 259.928 137.552 254.772 137.944 250.878C138.505 245.303 140.397 239.796 142.361 234.587C145.556 226.111 149.703 217.919 154.302 210.128C154.505 209.784 154.71 209.44 154.922 209.101C153.378 208.681 151.834 208.26 150.291 207.84C150.639 210.954 150.971 214.07 151.32 217.183C151.595 219.632 152.698 223.018 152.137 225.405C151.222 229.308 150.558 233.266 150.11 237.249C149.394 243.614 149.077 256.316 158.475 255.88C162.547 255.691 166.17 252.714 169.04 250.093C173.228 246.269 176.66 241.465 179.517 236.585C180.797 234.399 181.857 232.103 182.808 229.757C182.942 229.424 184.061 227.076 183.245 227.871C183.962 227.172 184.68 226.472 185.397 225.773C187.142 224.072 186.908 222.849 186.37 220.5C185.42 216.356 184.093 212.292 182.765 208.26C181.548 209.201 180.331 210.141 179.114 211.081C181.422 212.084 182.364 212.839 183.777 215.053C186.279 218.969 186.368 223.785 185.704 228.241C185.235 231.392 190.024 232.748 190.497 229.57C191.766 221.052 190.33 210.551 181.623 206.768C179.808 205.979 177.209 207.275 177.972 209.59C179.525 214.3 181.01 219.042 182.033 223.902C182.246 223.092 182.459 222.281 182.672 221.471C180.817 223.28 179.359 224.459 178.553 226.958C177.28 230.912 175.044 234.587 172.749 238.012C170.363 241.574 167.524 244.847 164.296 247.658C162.646 249.095 159.222 251.851 156.848 250.639C154.591 249.487 154.777 244.779 154.758 242.732C154.725 239.105 155.238 235.474 155.865 231.911C156.271 229.606 157.538 226.627 157.197 224.294C156.396 218.829 155.874 213.328 155.262 207.841C154.995 205.449 152.035 204.332 150.631 206.579C146.623 212.995 143.238 219.895 140.207 226.818C136.049 236.315 131.376 247.781 133.088 258.379C135 270.212 147.761 273.144 157.762 269.325C169.409 264.879 177.75 253.487 183.926 243.127C186.309 239.13 189.554 234.227 190.497 229.57C191.134 226.425 186.343 225.085 185.704 228.241Z" fill="#BFD2FA"/>
<path d="M178.987 225.543C177.227 231.589 173.697 237.161 169.765 242.011C167.353 244.986 162.119 251.557 157.623 250.904C153.662 250.327 154.738 241.399 154.931 238.828C155.265 234.38 156.142 229.952 157.196 225.622C155.598 225.622 154.001 225.622 152.403 225.622C153.086 230.054 153.929 234.44 155.002 238.793C155.649 241.417 156.427 246.523 158.431 248.639C159.376 249.636 160.992 249.569 161.946 248.639C169.011 241.751 176.076 234.862 183.141 227.974C185.445 225.727 181.928 222.197 179.626 224.44C172.561 231.329 165.496 238.217 158.431 245.106C159.603 245.106 160.774 245.106 161.946 245.106C163.414 246.656 162.469 245.95 162.067 244.916C161.82 244.281 161.607 243.635 161.392 242.988C160.698 240.893 160.114 238.762 159.587 236.618C158.585 232.552 157.834 228.433 157.196 224.293C156.81 221.789 152.957 222.017 152.403 224.293C150.997 230.069 149.966 236.012 149.795 241.963C149.649 247.056 150.435 254.226 156.301 255.72C162.371 257.267 168.509 250.929 172.09 246.939C177.199 241.245 181.626 234.269 183.78 226.871C184.683 223.771 179.885 222.457 178.987 225.543Z" fill="#BFD2FA"/>
<path d="M178.987 225.543C177.227 231.589 173.697 237.161 169.765 242.011C167.353 244.986 162.119 251.557 157.623 250.904C153.662 250.327 154.738 241.399 154.931 238.828C155.265 234.38 156.142 229.952 157.196 225.622C155.598 225.622 154.001 225.622 152.403 225.622C153.151 230.474 154.082 235.281 155.326 240.03C155.94 242.37 156.662 246.771 158.431 248.639C159.376 249.636 160.992 249.569 161.946 248.639C169.011 241.751 176.076 234.862 183.141 227.974C185.445 225.727 181.928 222.197 179.626 224.44C172.561 231.329 165.496 238.217 158.431 245.106C159.603 245.106 160.774 245.106 161.946 245.106C163.414 246.656 162.469 245.95 162.067 244.916C161.913 244.52 161.775 244.118 161.634 243.717C160.909 241.67 160.345 239.564 159.795 237.464C158.661 233.137 157.877 228.712 157.196 224.293C156.81 221.789 152.957 222.017 152.403 224.293C150.997 230.069 149.966 236.012 149.795 241.963C149.649 247.056 150.435 254.226 156.301 255.72C162.371 257.267 168.509 250.929 172.09 246.939C177.199 241.245 181.626 234.269 183.78 226.871C184.683 223.771 179.885 222.457 178.987 225.543Z" fill="#BFD2FA"/>
<path d="M154.579 68.5351C153.622 85.6001 152.666 102.666 151.711 119.731C153.367 119.731 155.025 119.731 156.681 119.731C156.683 119.529 156.686 119.327 156.688 119.125C156.704 117.766 155.546 116.622 154.203 116.626C149.064 116.643 143.887 116.835 138.752 116.626C137.41 116.571 136.252 117.804 136.267 119.125C136.269 119.327 136.272 119.529 136.274 119.731C137.931 119.731 139.588 119.731 141.245 119.731C141.081 116.821 140.918 113.911 140.755 111.001C139.926 111.834 139.098 112.667 138.269 113.5C141.827 113.5 145.584 114.153 148.545 111.848C149.962 110.745 150.695 107.688 149.985 105.991C148.909 103.422 147.33 102.227 144.582 101.857C144.802 103.493 145.022 105.128 145.243 106.765C148.127 106.375 150.184 103.968 150.184 101.029C150.184 97.6054 147.72 95.6337 144.582 95.2119C144.802 96.848 145.022 98.4834 145.243 100.119C150.097 99.4635 151.998 92.8933 148.042 89.8238C145.257 87.6623 140.456 88.5661 137.155 88.5661C137.983 89.3991 138.811 90.2314 139.64 91.0645C139.626 90.8168 139.611 90.5698 139.597 90.3221C138.769 91.1551 137.941 91.9875 137.112 92.8205C141.824 92.8205 150.184 94.1097 150.184 86.9992C150.184 79.7752 141.491 81.1779 136.736 81.1779C137.564 82.0109 138.392 82.8432 139.221 83.6763C138.94 78.6295 138.658 73.582 138.376 68.5351C137.547 69.3682 136.719 70.2005 135.891 71.0336C142.949 71.0336 150.007 71.0336 157.064 71.0336C160.27 71.0336 160.27 66.0367 157.064 66.0367C150.007 66.0367 142.949 66.0367 135.891 66.0367C134.594 66.0367 133.33 67.1739 133.406 68.5351C133.687 73.582 133.969 78.6295 134.251 83.6763C134.327 85.0354 135.323 86.1747 136.736 86.1747C137.875 86.1747 145.032 85.4495 145.214 86.8172C145.443 88.5396 138.313 87.8237 137.112 87.8237C135.816 87.8237 134.549 88.9615 134.627 90.3221C134.641 90.5698 134.655 90.8168 134.67 91.0645C134.748 92.4236 135.741 93.5629 137.155 93.5629C138.847 93.5629 140.54 93.5629 142.232 93.5629C142.987 93.5629 143.743 93.5629 144.498 93.5629C146.633 93.5629 143.982 95.2925 143.921 95.3011C140.875 95.713 142.099 99.8746 144.582 100.209C146.787 100.506 143.65 101.983 143.921 101.947C140.875 102.359 142.099 106.52 144.582 106.855C145.435 106.969 145.478 108.503 144.49 108.503C143.907 108.503 143.324 108.503 142.742 108.503C141.252 108.503 139.761 108.503 138.27 108.503C136.973 108.503 135.709 109.641 135.785 111.002C135.948 113.912 136.112 116.822 136.275 119.732C136.454 122.925 141.284 122.974 141.245 119.732C141.243 119.53 141.24 119.328 141.238 119.125C140.41 119.958 139.582 120.791 138.753 121.624C143.888 121.832 149.064 121.64 154.204 121.624C153.375 120.791 152.547 119.958 151.719 119.125C151.716 119.327 151.714 119.529 151.711 119.732C151.672 122.974 156.503 122.926 156.682 119.732C157.637 102.666 158.593 85.6008 159.55 68.5351C159.729 65.3136 154.759 65.3322 154.579 68.5351Z" fill="#BFD2FA"/>
<path d="M151.719 119.125C151.682 122.134 150.872 126.346 147.696 127.596C142.993 129.446 141.276 122.255 141.238 119.125C140.41 119.958 139.582 120.791 138.753 121.624C143.885 121.857 149.067 121.64 154.204 121.624C157.408 121.613 157.409 116.615 154.203 116.626C149.066 116.643 143.883 116.86 138.752 116.626C137.41 116.566 136.252 117.809 136.267 119.125C136.343 125.448 139.727 133.174 147.12 132.775C153.8 132.415 156.62 124.827 156.689 119.125C156.727 115.901 151.758 115.905 151.719 119.125Z" fill="#BFD2FA"/>
<path d="M182.672 221.471C174.592 229.349 166.512 237.228 158.431 245.106C159.603 245.106 160.774 245.106 161.946 245.106C163.564 246.814 162.29 245.515 161.918 244.516C161.589 243.634 161.307 242.734 161.023 241.836C160.233 239.338 159.594 236.788 159.028 234.23C157.455 227.121 156.587 219.917 155.789 212.685C155.201 207.362 155.029 201.777 153.63 196.588C152.879 193.802 152.074 192.706 151.234 190.163C149.189 183.968 148.203 177.391 147.426 170.933C146.704 164.936 146.274 158.905 145.959 152.874C145.758 149.041 145.635 145.205 145.543 141.369C145.491 139.227 145.463 137.085 145.439 134.942C145.423 133.447 145.012 131.288 145.394 129.861C144.177 130.359 142.96 130.856 141.743 131.354C149.249 135.793 155.497 128.924 156.502 121.671C156.948 118.454 156.938 115.126 157.12 111.889C157.641 102.584 158.162 93.2802 158.683 83.9754C157.269 84.5643 155.855 85.1532 154.441 85.7421C160.135 90.3007 161.174 99.6455 161.441 106.453C161.609 110.743 161.299 115.045 160.831 119.307C160.535 122.001 159.709 124.66 160.139 127.352C160.975 132.582 161.899 137.799 162.911 142.997C165.426 155.906 170.199 168.152 171.522 181.315C171.794 184.019 172.072 186.96 171.504 189.643C171.056 191.757 172.262 193.682 173.003 195.643C176.484 204.852 180 214.244 182.033 223.903C182.697 227.054 187.487 225.717 186.825 222.574C184.791 212.911 181.259 203.536 177.796 194.315C177.331 193.076 176.857 191.841 176.378 190.607C176.061 189.792 176.467 190.347 176.297 190.972C176.445 190.43 176.508 189.847 176.575 189.292C176.964 186.059 176.665 182.782 176.307 179.561C174.799 166.026 169.943 153.319 167.38 139.998C166.455 135.189 165.621 130.361 164.852 125.525C164.721 124.707 165.25 123.485 165.395 122.476C165.714 120.242 165.956 118 166.152 115.752C166.522 111.494 166.548 107.205 166.201 102.945C165.631 95.9535 163.792 86.8835 157.956 82.2101C156.263 80.8552 153.843 81.6611 153.713 83.9768C153.301 91.3357 152.889 98.6947 152.477 106.054C152.247 110.157 152.972 132.198 144.252 127.041C142.873 126.225 141.018 126.977 140.601 128.534C139.776 131.616 140.47 135.67 140.522 138.854C140.586 142.809 140.713 146.762 140.885 150.713C141.167 157.214 141.639 163.71 142.367 170.176C143.165 177.244 144.199 184.41 146.35 191.208C147.021 193.33 147.999 195.327 148.694 197.437C150.6 203.233 150.511 209.952 151.185 215.981C151.941 222.755 152.89 229.481 154.363 236.137C154.951 238.795 155.679 241.423 156.5 244.018C156.952 245.446 157.385 247.533 158.431 248.639C159.376 249.636 160.992 249.569 161.946 248.639C170.026 240.761 178.106 232.882 186.187 225.005C188.491 222.758 184.973 219.228 182.672 221.471Z" fill="#BFD2FA"/>
<path d="M145.214 94.1975C145.214 95.8615 141.943 95.2111 140.931 95.2111C140.205 95.2111 135.645 95.84 135.5 94.5687C135.315 92.9412 138.947 93.5622 139.783 93.5622C140.5 93.5629 145.07 92.9383 145.214 94.1975C145.574 97.3605 150.549 97.3955 150.184 94.1975C149.502 88.2248 144.401 88.5653 139.783 88.5653C135.494 88.5653 130.53 88.8809 130.53 94.5687C130.53 100.58 136.754 100.208 140.931 100.208C145.223 100.208 150.184 99.8875 150.184 94.1975C150.184 90.9753 145.214 90.9753 145.214 94.1975Z" fill="#BFD2FA"/>
<path d="M145.214 100.843C145.214 102.507 141.943 101.857 140.931 101.857C140.205 101.857 135.645 102.486 135.5 101.215C135.315 99.587 138.947 100.208 139.783 100.208C140.5 100.209 145.07 99.5841 145.214 100.843C145.574 104.006 150.549 104.041 150.184 100.843C149.502 94.8707 144.401 95.2112 139.783 95.2112C135.494 95.2112 130.53 95.5267 130.53 101.215C130.53 107.226 136.754 106.854 140.931 106.854C145.223 106.854 150.184 106.533 150.184 100.843C150.184 97.6211 145.214 97.6211 145.214 100.843Z" fill="#BFD2FA"/>
<path d="M145.214 107.489C145.214 109.152 141.943 108.503 140.931 108.503C140.205 108.503 135.645 109.132 135.5 107.86C135.314 106.232 138.947 106.854 139.783 106.854C140.501 106.854 145.07 106.229 145.214 107.489C145.574 110.652 150.549 110.687 150.184 107.489C149.502 101.516 144.401 101.857 139.783 101.857C135.494 101.857 130.53 102.172 130.53 107.86C130.53 113.872 136.754 113.5 140.931 113.5C145.223 113.5 150.184 113.179 150.184 107.489C150.184 104.267 145.214 104.267 145.214 107.489Z" fill="#BFD2FA"/>
<path d="M145.214 86.8172C145.214 88.4711 141.933 87.823 140.931 87.823C140.205 87.823 135.645 88.4519 135.5 87.1805C135.314 85.5523 138.949 86.174 139.783 86.174C140.508 86.174 145.069 85.5465 145.214 86.8172C145.574 89.9802 150.549 90.0144 150.184 86.8165C149.502 80.8402 144.405 81.1772 139.783 81.1772C135.497 81.1772 130.53 81.4948 130.53 87.1805C130.53 93.191 136.754 92.8198 140.931 92.8198C145.217 92.8198 150.184 92.5021 150.184 86.8165C150.184 83.5942 145.214 83.5949 145.214 86.8172Z" fill="#BFD2FA"/>
<path d="M294.413 596.074C298.087 617.981 301.76 639.889 305.434 661.797C306.232 660.742 307.031 659.688 307.83 658.634C293.823 658.76 279.814 658.818 265.809 659.011C266.394 659.255 266.979 659.5 267.566 659.743C266.558 658.73 264.802 659.004 263.499 659.004C260.836 659.004 258.173 659.004 255.51 659.004C246.2 659.004 236.889 659.004 227.579 659.004C205.557 659.004 183.534 659.004 161.511 659.004C157.084 659.004 152.656 659.004 148.228 659.004C145.535 659.004 143.873 658.836 141.446 660.188C142.579 661.328 143.713 662.466 144.847 663.606C148.285 657.225 154.179 652.264 160.713 649.262C161.508 648.896 161.912 647.923 161.943 647.105C161.952 646.857 161.962 646.61 161.972 646.362C160.428 646.783 158.884 647.203 157.341 647.624C161.404 653.746 167.623 650.288 171.508 645.884C176.462 640.268 179.991 633.326 183.324 626.675C184.554 624.22 185.013 623.305 186.922 621.545C189.333 619.324 191.616 616.964 193.789 614.507C196.142 611.844 198.305 608.987 200.142 605.941C200.991 604.532 201.652 603.037 202.276 601.52C202.734 600.407 203.504 599.657 201.87 600.748C202.062 600.62 202.256 600.493 202.449 600.366C208.097 596.661 213.944 593.251 219.864 590.006C229.232 584.87 239.123 580.807 248.478 575.65C253.157 573.071 262.523 568.588 263.086 562.285C263.641 556.06 253.244 554.13 249.273 551.711C245.844 549.621 247.441 547.597 249.8 545.397C253.595 541.857 258.604 539.428 263.073 536.871C270.355 532.703 277.836 528.902 285.161 524.813C290.24 521.977 295.962 518.779 299.196 513.722C297.651 513.302 296.108 512.882 294.565 512.461C294.891 514.924 295.218 517.387 295.545 519.85C295.753 521.426 296.975 522.735 298.691 522.259C299.994 521.898 301.315 521.611 302.641 521.35C303.8 521.123 304.963 520.977 306.14 520.894C306.608 520.861 308.589 521.076 308.345 520.754C308.643 519.614 308.94 518.476 309.238 517.336C306.391 518.766 303.543 520.196 300.696 521.626C299.966 521.993 299.411 522.965 299.466 523.783C300.31 536.515 301.156 549.248 302 561.98C302.51 569.67 303.021 577.362 303.53 585.052C303.639 586.698 303.749 588.345 303.858 589.993C303.886 590.424 303.744 590.051 303.847 589.818C303.267 591.139 302.039 591.964 300.739 592.443C299.505 592.899 298.114 593.024 296.809 592.911C293.615 592.634 293.64 597.633 296.809 597.908C302.857 598.432 309.129 594.535 308.703 588.115C308.217 580.798 307.732 573.48 307.246 566.162C306.309 552.036 305.372 537.909 304.435 523.783C304.024 524.503 303.614 525.222 303.204 525.94C306.051 524.51 308.899 523.08 311.746 521.65C312.856 521.093 313.419 519.27 312.638 518.232C309.391 513.926 301.711 516.237 297.369 517.441C298.418 518.244 299.466 519.047 300.515 519.85C300.188 517.387 299.862 514.924 299.535 512.461C299.22 510.082 296.347 508.945 294.904 511.2C291.842 515.988 285.777 518.742 281.02 521.411C273.902 525.404 266.621 529.09 259.535 533.145C253.726 536.469 244.46 540.508 242.317 547.594C240.306 554.242 249.488 557.557 253.918 559.538C256.024 560.479 259.227 560.986 257.264 563.361C254.62 566.56 250.539 568.711 247.013 570.746C237.767 576.085 227.821 580.073 218.418 585.114C212.205 588.446 206.114 592.039 200.199 595.882C198.487 596.994 198.187 598.268 197.483 600.191C196.118 603.923 193.386 607.298 190.863 610.291C187.99 613.699 184.788 616.872 181.425 619.793C180.807 620.329 180.574 620.989 180.211 621.746C179.114 624.032 177.963 626.291 176.783 628.536C175.107 631.726 173.3 634.847 171.327 637.861C169.557 640.567 166.955 644.628 163.944 645.869C163.433 646.08 163.274 646.094 163.113 646.104C162.704 646.132 162.559 646.029 162.711 646.097C162.087 645.813 161.952 645.585 161.631 645.101C160.258 643.034 157.097 643.817 157 646.362C156.991 646.61 156.981 646.857 156.971 647.105C157.382 646.385 157.792 645.666 158.202 644.947C150.96 648.276 144.356 654.027 140.554 661.084C139.364 663.292 141.744 665.734 143.954 664.503C144.935 663.956 145.882 664.001 144.262 664.001C144.391 664.001 144.52 664.001 144.649 664.001C145.344 664.001 146.038 664.001 146.733 664.001C149.464 664.001 152.194 664.001 154.925 664.001C164.317 664.001 173.709 664.001 183.101 664.001C205.072 664.001 227.044 664.001 249.015 664.001C254.611 664.001 260.207 664.001 265.803 664.001C265.217 663.757 264.632 663.513 264.046 663.269C265.284 664.514 268.605 663.983 270.198 663.969C274.937 663.925 279.676 663.883 284.414 663.84C292.22 663.77 300.025 663.701 307.831 663.63C309.568 663.615 310.493 662.056 310.227 660.467C306.553 638.56 302.88 616.652 299.206 594.744C298.674 591.573 293.885 592.923 294.413 596.074Z" fill="#BFD2FA"/>
<path d="M294.904 511.2C292.783 514.516 289.09 516.648 285.831 518.649C280.668 521.817 275.223 524.536 269.896 527.41C263.502 530.861 257.074 534.332 250.976 538.297C247.148 540.786 242.525 544.173 242.107 549.124C242.715 548.321 243.323 547.518 243.931 546.715C243.626 546.803 243.321 546.891 243.015 546.979C244.064 547.782 245.113 548.585 246.161 549.388C247.663 514.344 249.164 479.298 250.666 444.254C251.288 429.74 251.909 415.225 252.531 400.711C252.619 398.644 250.395 397.833 248.791 398.554C249.672 398.158 249.316 398.841 248.647 397.706C246.029 393.261 247.48 385.599 247.971 380.86C249.357 367.468 251.527 354.13 253.43 340.805C255.239 328.121 257.12 315.438 258.597 302.709C259.677 293.382 259.392 284.058 258.9 274.691C257.357 275.111 255.813 275.532 254.27 275.952C270.937 302.81 282.304 333.849 289.039 364.634C289.122 363.993 289.206 363.352 289.29 362.71C283.859 372.537 278.426 382.363 272.994 392.191C272.328 393.396 272.711 394.893 273.887 395.61C278.348 398.327 282.809 401.044 287.27 403.761C287.27 402.323 287.27 400.884 287.27 399.446C286.378 400.024 285.483 400.534 284.537 401.017C283.618 401.485 283.022 402.848 283.395 403.838C285.702 409.958 286.25 417.129 287.155 423.535C291.309 452.966 292.989 482.804 294.567 512.462C294.737 515.666 299.708 515.683 299.537 512.462C297.943 482.503 296.134 452.427 292.015 422.691C291.106 416.133 290.55 408.774 288.187 402.51C287.807 403.45 287.426 404.391 287.045 405.332C287.991 404.848 288.887 404.337 289.779 403.761C291.349 402.746 291.42 400.445 289.779 399.446C285.318 396.729 280.857 394.012 276.395 391.294C276.691 392.434 276.989 393.573 277.287 394.713C281.066 387.874 284.846 381.035 288.627 374.196C290.229 371.297 291.83 368.4 293.432 365.502C294.615 363.362 293.17 360.303 292.656 358.109C291.48 353.085 290.131 348.104 288.688 343.152C281.659 319.043 271.835 294.816 258.563 273.43C257.315 271.421 253.795 272.106 253.932 274.691C254.459 284.744 254.595 294.619 253.403 304.615C251.674 319.109 249.48 333.548 247.423 347.997C246.381 355.318 245.351 362.639 244.372 369.969C243.4 377.248 242.209 384.613 242.515 391.977C242.701 396.456 244.778 405.802 251.294 402.872C251.297 402.871 251.299 402.87 251.302 402.869C250.055 402.149 248.809 401.431 247.562 400.712C246.191 432.706 244.822 464.703 243.451 496.697C242.698 514.261 241.945 531.825 241.193 549.389C241.123 551.01 242.833 552.232 244.339 551.798C244.644 551.711 244.949 551.622 245.255 551.534C246.388 551.207 246.984 550.256 247.079 549.125C247.227 547.364 249.293 545.839 250.493 544.801C253.322 542.353 256.756 540.55 259.964 538.667C265.725 535.286 271.626 532.159 277.502 528.989C284.92 524.987 294.46 521.13 299.199 513.722C300.935 511.003 296.632 508.5 294.904 511.2Z" fill="#BFD2FA"/>
<path d="M348.925 362.28C346.099 367.319 343.22 372.327 340.339 377.335C337.457 382.343 332.981 386.992 326.745 386.156C327.461 387.409 328.176 388.662 328.891 389.916C331.179 384.51 336.025 378.63 333.98 372.547C333.093 369.905 331.111 367.657 329.072 365.839C328.485 365.315 327.853 364.833 327.216 364.373C327.3 364.433 327.185 364.625 327.474 364.455C327.667 364.343 328.005 364.328 328.229 364.295C329.537 364.103 330.336 362.4 329.964 361.221C329.738 360.501 329.408 360.001 330.217 359.682C330.43 359.598 331.825 359.366 330.777 359.487C331.776 359.371 333.01 358.82 333.173 357.653C333.48 355.443 334.748 356.432 336.561 357.072C339.091 357.966 341.584 359.68 343.44 361.618C344.53 362.756 346.584 362.514 347.344 361.112C348.933 358.179 348.808 355.49 346.984 352.683C346.483 351.913 345.82 351.197 345.114 350.611C344.419 350.034 343.801 349.205 343.179 348.547C343.018 348.377 341.464 347.177 342.321 348.026C344.101 349.789 345.645 351.867 347.297 353.749C349.609 356.381 351.035 359.076 348.925 362.28C347.15 364.976 351.457 367.476 353.217 364.802C358.469 356.822 350.818 350.077 345.838 344.492C343.344 341.696 338.47 342.003 337.369 346.028C335.988 351.074 345.339 354.37 343.053 358.589C344.354 358.421 345.655 358.252 346.956 358.084C343.193 354.155 329.807 346.076 328.381 356.323C329.18 355.712 329.979 355.101 330.777 354.489C326.5 354.983 323.798 358.197 325.171 362.549C325.749 361.524 326.329 360.501 326.907 359.476C324.826 359.78 323.369 361.099 322.59 362.994C321.56 365.498 323.861 367.934 325.557 369.372C328.514 371.877 330.553 374.842 328.673 378.64C327.248 381.522 325.852 384.431 324.598 387.393C323.807 389.263 324.758 390.886 326.744 391.153C332.631 391.942 338.536 388.491 342 383.917C346.396 378.113 349.648 371.165 353.217 364.802C354.794 361.992 350.499 359.475 348.925 362.28Z" fill="#BFD2FA"/>
<path d="M189.34 250.813C186.282 267.645 185.656 284.757 180.419 301.153C175.94 315.175 170.937 329.038 165.972 342.891C167.6 343.113 169.226 343.334 170.854 343.556C170.504 337.235 167.754 331.561 164.248 326.407C162.79 324.264 161.149 322.233 159.448 320.28C158.505 319.197 157.204 318.242 156.749 316.929C156.17 317.954 155.591 318.978 155.013 320.003C169.451 314.658 177.579 298.351 183.287 285.055C187.835 274.463 191.493 263.375 194.133 252.142C194.868 249.008 190.076 247.677 189.34 250.813C186.986 260.834 183.78 270.702 179.944 280.243C177.001 287.565 173.476 294.709 169.086 301.27C165.282 306.956 160.258 312.752 153.691 315.184C152.489 315.629 151.482 316.892 151.956 318.257C153.048 321.408 155.715 323.47 157.784 326.012C161.798 330.942 165.523 337.053 165.883 343.556C166.043 346.437 169.813 346.875 170.765 344.22C175.643 330.61 180.513 316.985 184.971 303.229C190.366 286.583 191.025 269.248 194.133 252.142C194.704 248.99 189.915 247.646 189.34 250.813Z" fill="#BFD2FA"/>
<path d="M254.018 274.027C249.115 287.63 240.661 300.072 231.687 311.272C226.214 318.103 220.263 324.537 214.063 330.703C206.529 338.196 198.338 344.959 191.07 352.727C181.822 362.611 173.701 373.87 168.719 386.549C166.837 391.34 165.202 396.793 165.294 402.011C166.123 401.178 166.95 400.345 167.779 399.512C163.978 399.964 159.905 399.97 157.712 396.324C156.573 394.43 156.428 391.973 156.393 389.824C156.294 383.852 158.037 377.842 159.827 372.207C162.566 363.585 166.204 355.155 170.387 347.141C174.175 339.882 180.236 333.594 186.052 327.767C192.059 321.749 198.562 316.252 205.165 310.911C211.912 305.453 218.698 300.047 225.598 294.786C229.536 291.784 233.511 288.833 237.483 285.879C239.093 284.681 240.715 283.501 242.333 282.316C243.273 281.628 240.438 282.547 242.011 282.404C242.65 282.346 243.289 282.288 243.926 282.229C245.234 282.11 246.465 281.183 246.411 279.731C246.392 279.198 246.372 278.665 246.354 278.132C245.943 278.851 245.535 279.57 245.124 280.289C247.203 278.685 249.392 277.211 251.522 275.677C250.099 275.991 249.92 276.063 250.985 275.893C251.556 275.702 252.064 275.396 252.507 274.974C253.246 274.443 253.987 273.916 254.731 273.393C253.727 273.263 252.723 273.132 251.72 273.002C252.7 274.154 253.678 275.308 254.66 276.458C256.75 278.907 260.25 275.356 258.174 272.925C257.192 271.775 256.214 270.622 255.234 269.47C254.557 268.674 253.077 268.478 252.222 269.079C251.88 269.32 249.452 270.987 250.317 270.987C248.797 270.987 247.411 272.505 246.277 273.323C243.522 275.309 241.308 276.102 241.442 279.731C242.27 278.898 243.098 278.066 243.927 277.233C241.49 277.455 240.306 277.652 238.313 279.108C234.156 282.143 230.019 285.209 225.924 288.328C218.619 293.891 211.4 299.55 204.237 305.297C190.433 316.374 177.147 328.095 166.885 342.678C166.494 343.234 165.731 345.319 166.062 344.686C165.899 344.998 165.739 345.311 165.58 345.624C164.781 347.196 164.016 348.785 163.264 350.38C160.805 355.597 158.566 360.927 156.587 366.347C154.383 372.385 152.505 378.65 151.741 385.054C151.138 390.115 151.145 395.775 154.236 400.081C157.362 404.439 162.845 405.094 167.781 404.509C169.107 404.351 170.293 403.491 170.266 402.01C170.181 397.13 171.889 392.014 173.733 387.321C179.067 373.744 188.745 362.01 198.89 351.799C206.099 344.543 213.961 337.994 221.115 330.669C226.972 324.671 232.494 318.34 237.642 311.716C246.21 300.692 254.049 288.573 258.813 275.354C259.906 272.319 255.101 271.021 254.018 274.027Z" fill="#BFD2FA"/>
<path d="M243.925 277.232C243.063 277.31 242.202 277.389 241.34 277.467C241.758 279.019 242.176 280.571 242.594 282.123C243.436 281.51 244.277 280.897 245.123 280.289C243.876 279.57 242.63 278.85 241.383 278.131C241.401 278.665 241.42 279.197 241.44 279.73C241.491 281.091 242.532 282.229 243.925 282.229C245.241 282.229 246.461 281.092 246.41 279.73C246.39 279.197 246.372 278.665 246.353 278.131C246.323 277.242 245.898 276.431 245.123 275.974C244.41 275.554 243.318 275.467 242.614 275.974C241.77 276.582 240.927 277.195 240.086 277.809C239.172 278.475 238.626 279.468 238.944 280.63C239.217 281.629 240.253 282.563 241.34 282.464C242.202 282.386 243.063 282.307 243.925 282.229C245.273 282.106 246.41 281.185 246.41 279.73C246.409 278.462 245.277 277.109 243.925 277.232Z" fill="#BFD2FA"/>
<path d="M242.232 276.272C242.212 276.288 242.192 276.305 242.171 276.321C242.339 276.19 242.507 276.06 242.674 275.931C242.655 275.946 242.633 275.959 242.613 275.974C243.859 276.693 245.106 277.412 246.353 278.131C246.353 278.129 246.353 278.127 246.353 278.125C245.943 278.844 245.533 279.562 245.123 280.281C245.163 280.253 245.203 280.224 245.243 280.196C245.791 279.809 246.203 279.371 246.385 278.704C246.561 278.059 246.471 277.355 246.134 276.779C245.493 275.678 243.844 275.097 242.734 275.883C242.525 276.03 242.277 276.192 242.111 276.359C241.643 276.829 241.383 277.47 241.383 278.133C241.383 279.014 241.858 279.844 242.613 280.29C243.323 280.708 244.423 280.8 245.122 280.29C245.335 280.135 245.542 279.972 245.745 279.807C246.231 279.412 246.473 278.641 246.473 278.04C246.473 277.38 246.209 276.74 245.745 276.273C245.282 275.807 244.645 275.541 243.988 275.541C243.274 275.54 242.767 275.837 242.232 276.272Z" fill="#BFD2FA"/>
<path d="M249.011 271.363C248.361 271.834 247.709 272.301 247.051 272.763C247.888 274.201 248.723 275.639 249.56 277.077C250.212 276.609 250.863 276.14 251.52 275.678C252.627 274.899 253.138 273.507 252.411 272.259C251.769 271.156 250.124 270.581 249.011 271.363C248.354 271.825 247.704 272.295 247.051 272.763C246.505 273.154 246.093 273.585 245.909 274.255C245.733 274.9 245.824 275.604 246.16 276.18C246.803 277.284 248.447 277.858 249.56 277.077C250.217 276.616 250.87 276.148 251.52 275.677C252.066 275.283 252.479 274.857 252.662 274.185C252.838 273.539 252.748 272.836 252.411 272.259C251.775 271.168 250.113 270.566 249.011 271.363Z" fill="#BFD2FA"/>
<path d="M254.63 278.841C254.588 278.929 254.546 279.017 254.502 279.105C256.047 279.525 257.59 279.946 259.133 280.366C259.065 278.562 258.997 276.759 258.913 274.955C257.369 275.376 255.825 275.796 254.282 276.217C254.497 276.627 254.788 276.988 254.991 277.408C254.865 277.103 254.849 277.09 254.943 277.367C255.134 277.996 254.948 276.878 254.975 277.613C254.986 277.899 254.862 278.36 254.63 278.841C254.04 280.066 254.287 281.532 255.522 282.259C256.622 282.907 258.332 282.589 258.922 281.364C259.733 279.682 260.103 278.101 259.785 276.247C259.618 275.267 259.016 274.538 258.575 273.695C257.434 271.518 253.829 272.49 253.944 274.956C254.027 276.759 254.096 278.563 254.164 280.367C254.252 282.688 257.655 283.99 258.795 281.628C258.838 281.54 258.88 281.452 258.923 281.364C259.515 280.139 259.265 278.672 258.031 277.946C256.931 277.297 255.222 277.616 254.63 278.841Z" fill="#BFD2FA"/>
<path d="M247.56 400.711C247.053 412.539 246.546 424.367 246.04 436.196C246.283 435.607 246.526 435.019 246.768 434.429C245.088 436.144 244.174 438.763 243.052 440.851C240.36 445.862 237.563 450.816 234.659 455.706C231.478 461.061 228.138 466.336 224.46 471.364C221.305 475.678 217.55 478.825 213.777 482.51C204.844 491.233 198.23 502.427 191.513 512.874C189.801 515.536 188.033 517.173 185.17 519.644C179.038 524.936 171.901 529.325 164.029 531.353C165.078 532.156 166.128 532.959 167.176 533.762C167.665 526.633 168.142 519.487 169.022 512.393C169.156 511.321 169.316 510.248 169.548 509.195C169.599 508.962 169.66 508.731 169.736 508.505C169.376 509.574 167.543 510.768 165.78 509.302C167.764 510.952 170.346 509.388 169.934 506.872C169.022 501.298 168.244 495.71 167.609 490.098C167.148 486.026 166.369 482.27 167.685 478.375C169.36 473.415 171.054 468.461 172.759 463.512C177.398 450.054 182.146 436.634 187.05 423.271C192.111 409.48 197.31 395.722 203.039 382.194C207.54 371.564 212.852 361.847 218.639 351.902C226.468 338.45 233.601 324.579 240.697 310.726C244.381 303.532 248.424 296.642 252.294 289.56C254.779 285.014 256.909 280.287 258.775 275.454C257.177 275.454 255.58 275.454 253.982 275.454C254.399 276.824 254.172 280.451 254.234 282.621C254.338 286.211 254.404 289.802 254.412 293.393C254.419 297.352 253.793 301.357 253.32 305.277C251.559 319.862 249.355 334.394 247.287 348.937C246.252 356.211 245.231 363.487 244.264 370.77C243.301 378.022 242.108 385.377 242.557 392.712C242.829 397.156 245.099 405.657 251.299 402.869C254.221 401.555 251.691 397.251 248.791 398.554C249.672 398.158 249.316 398.841 248.647 397.706C246.029 393.261 247.48 385.599 247.971 380.86C249.39 367.151 251.618 353.498 253.564 339.858C255.357 327.288 257.225 314.718 258.665 302.101C259.14 297.94 259.403 293.884 259.361 289.695C259.334 286.863 259.249 284.03 259.163 281.2C259.096 278.999 259.425 276.262 258.776 274.125C258.012 271.615 254.848 271.885 253.983 274.125C251.084 281.636 247.292 288.71 243.019 295.515C240.263 299.903 238.152 304.797 235.788 309.412C233.19 314.483 230.566 319.539 227.915 324.583C223.201 333.556 218.393 342.486 213.267 351.229C210.55 355.864 207.7 360.342 205.312 365.163C192.953 390.114 183.903 416.937 174.616 443.149C171.317 452.461 168.082 461.797 164.894 471.148C163.758 474.481 161.554 478.603 161.854 482.15C162.589 490.874 163.729 499.562 165.141 508.199C166.526 507.389 167.91 506.578 169.295 505.769C166.723 503.63 165.022 506.376 164.596 508.654C163.057 516.877 162.775 525.439 162.205 533.761C162.092 535.421 163.873 536.552 165.351 536.17C173.359 534.106 180.414 529.813 186.849 524.699C189.737 522.403 192.802 519.929 194.875 516.826C202.044 506.089 208.53 494.598 217.831 485.516C221.744 481.696 225.451 478.332 228.752 473.885C232.787 468.45 236.341 462.65 239.783 456.823C242.659 451.955 245.406 447.008 248.07 442.02C248.952 440.369 250.948 437.695 251.025 435.904C251.527 424.173 252.029 412.442 252.531 400.711C252.668 397.488 247.697 397.502 247.56 400.711Z" fill="#BFD2FA"/>
<path d="M258.575 273.695C258.561 273.666 258.549 273.636 258.536 273.606C258.619 273.805 258.702 274.005 258.787 274.203C258.783 274.177 258.779 274.152 258.775 274.126C258.775 274.569 258.775 275.012 258.775 275.454C258.787 275.421 258.799 275.387 258.811 275.354C257.184 275.132 255.557 274.911 253.929 274.69C253.936 274.778 253.939 274.866 253.944 274.954C254.005 276.314 255.028 277.452 256.429 277.452C257.737 277.452 258.975 276.315 258.914 274.954C258.91 274.866 258.907 274.778 258.9 274.691C258.823 273.571 258.198 272.591 257.076 272.281C256.434 272.103 255.734 272.194 255.161 272.533C254.569 272.881 254.246 273.394 254.019 274.025C253.736 274.812 253.973 275.503 254.283 276.215C254.528 276.774 255.208 277.208 255.768 277.363C256.41 277.54 257.11 277.449 257.683 277.111C258.239 276.784 258.655 276.242 258.825 275.618C259.018 274.913 258.856 274.338 258.575 273.695Z" fill="#BFD2FA"/>
<path d="M254.267 281.523C254.269 281.539 254.272 281.556 254.274 281.573C254.244 281.351 254.215 281.129 254.185 280.908C254.185 280.967 254.185 281.027 254.185 281.087C255.842 281.087 257.499 281.087 259.155 281.087C259.157 281.01 259.154 280.935 259.148 280.858C259.074 279.499 258.073 278.36 256.663 278.36C255.364 278.36 254.104 279.497 254.178 280.858C254.184 280.934 254.186 281.01 254.185 281.087C254.196 282.449 255.308 283.585 256.67 283.585C258.025 283.585 259.155 282.449 259.155 281.087C259.155 280.785 259.102 280.496 259.06 280.194C258.976 279.592 258.413 278.994 257.918 278.702C257.343 278.363 256.644 278.272 256.003 278.45C255.381 278.622 254.843 279.039 254.517 279.598C254.146 280.234 254.169 280.823 254.267 281.523Z" fill="#BFD2FA"/>
<path d="M259.304 286.526C259.297 286.119 259.289 285.712 259.275 285.305C257.619 285.305 255.962 285.305 254.305 285.305C254.321 285.712 254.332 286.119 254.333 286.526C254.339 287.888 255.46 289.024 256.819 289.024C258.17 289.024 259.309 287.889 259.304 286.526C259.302 286.119 259.292 285.712 259.275 285.305C259.219 283.945 258.188 282.807 256.79 282.807C255.471 282.807 254.259 283.943 254.305 285.305C254.319 285.712 254.326 286.119 254.333 286.526C254.356 287.887 255.446 289.024 256.819 289.024C258.156 289.024 259.327 287.889 259.304 286.526Z" fill="#BFD2FA"/>
<path d="M242.268 296.687C232.81 315.354 223.382 334.11 212.736 352.13C207.063 361.733 202.215 371.402 197.888 381.71C186.722 408.313 177.13 435.599 167.729 462.872C165.742 468.637 163.777 474.41 161.832 480.19C163.459 480.412 165.086 480.633 166.713 480.855C165.209 462.068 165.235 443.166 167.181 424.412C167.937 417.131 168.878 409.726 170.665 402.612C171.02 401.2 169.93 399.232 168.268 399.449C168.105 399.47 167.942 399.491 167.779 399.512C168.608 400.345 169.435 401.179 170.264 402.012C170.034 388.881 179.435 374.732 187.28 364.749C197.489 351.758 210.533 341.608 221.962 329.791C231.057 320.387 239.407 310.188 246.56 299.21C248.323 296.504 244.016 294.003 242.268 296.687C234.884 308.021 226.166 318.363 216.733 328.021C205.164 339.868 192.2 350.071 182.112 363.344C174.129 373.849 165.052 388.105 165.294 402.011C165.315 403.237 166.416 404.687 167.779 404.509C167.942 404.487 168.106 404.466 168.269 404.444C167.47 403.39 166.671 402.336 165.873 401.281C164.108 408.307 163.203 415.604 162.388 422.788C160.203 442.048 160.198 461.546 161.744 480.853C161.969 483.664 165.704 484.255 166.625 481.518C174.946 456.792 183.566 432.157 192.84 407.775C197.62 395.209 202.526 382.647 208.255 370.481C214.358 357.52 222.41 345.494 229.16 332.858C235.11 321.721 240.852 310.472 246.56 299.208C248.012 296.344 243.724 293.814 242.268 296.687Z" fill="#BFD2FA"/>
<path d="M167.623 58.1988C167.623 61.6474 167.009 65.6727 162.619 65.6727C161.761 65.6727 160.903 65.6727 160.046 65.6727C155.406 65.6727 150.766 65.6727 146.126 65.6727C141.59 65.6727 137.055 65.6727 132.519 65.6727C127.588 65.6727 124.48 63.6561 124.48 58.1988C123.652 59.0319 122.824 59.8642 121.995 60.6972C138.033 60.6972 154.07 60.6972 170.108 60.6972C173.313 60.6972 173.313 55.7004 170.108 55.7004C154.07 55.7004 138.033 55.7004 121.995 55.7004C120.64 55.7004 119.51 56.8368 119.51 58.1988C119.51 64.9217 123.37 70.6695 130.63 70.6695C135.561 70.6695 140.493 70.6695 145.424 70.6695C150.852 70.6695 156.28 70.6695 161.708 70.6695C169.284 70.6695 172.593 65.3008 172.593 58.1988C172.593 54.9766 167.623 54.9766 167.623 58.1988Z" fill="#BFD2FA"/>
<path d="M166.292 64.2057C163.92 66.6892 160.327 66.0374 157.187 66.0374C152.57 66.0374 147.952 66.0374 143.334 66.0374C139.497 66.0374 135.66 66.0374 131.823 66.0374C126.924 66.0374 124.111 63.1978 124.111 58.1995C123.282 59.0326 122.455 59.8649 121.626 60.698C121.749 60.698 121.872 60.6972 121.995 60.6972C121.167 59.8642 120.339 59.0319 119.51 58.1988C119.51 64.6797 123.199 70.6702 130.338 70.6702C133.989 70.6702 137.64 70.6702 141.291 70.6702C146.767 70.6702 152.244 70.6702 157.72 70.6702C162.196 70.6702 166.137 70.9243 169.807 67.7406C172.237 65.6306 168.705 62.1113 166.292 64.2057C163.898 66.283 160.138 65.6734 157.187 65.6734C152.57 65.6734 147.952 65.6734 143.334 65.6734C139.497 65.6734 135.66 65.6734 131.823 65.6734C127.029 65.6734 124.48 63.1164 124.48 58.1988C124.48 56.8368 123.35 55.7004 121.995 55.7004C121.872 55.7004 121.749 55.7011 121.626 55.7011C120.271 55.7011 119.141 56.8375 119.141 58.1995C119.141 64.7447 123.138 71.0343 130.337 71.0343C133.988 71.0343 137.64 71.0343 141.291 71.0343C146.767 71.0343 152.243 71.0343 157.719 71.0343C162.229 71.0343 166.36 71.3484 169.806 67.7399C172.025 65.4157 168.515 61.8772 166.292 64.2057Z" fill="#BFD2FA"/>
<path d="M265.801 659.005C249.964 659.005 234.129 659.005 218.292 659.005C219.091 660.059 219.89 661.113 220.688 662.168C225.786 636.594 230.694 610.967 234.936 585.235C235.284 583.126 234.965 582.449 236.908 581.535C239.312 580.405 241.692 579.225 244.057 578.015C248.145 575.926 252.161 573.665 255.928 571.031C259.588 568.472 264.736 564.407 262.476 559.379C261.495 557.195 258.4 556.124 256.427 555.225C253.384 553.837 249.851 552.686 247.486 550.215C244.026 546.601 261.966 537.5 264.094 536.292C262.848 535.572 261.602 534.853 260.355 534.135C258.839 557.794 257.745 581.501 257.629 605.212C257.571 617.113 257.741 629.052 258.8 640.911C259.434 647.999 259.926 656.486 263.654 662.765C265.295 665.528 269.593 663.017 267.946 660.243C264.35 654.185 264.146 645.583 263.588 638.767C262.623 627.008 262.537 615.171 262.608 603.38C262.751 580.282 263.847 557.182 265.324 534.135C265.449 532.187 263.137 531.096 261.584 531.977C255.294 535.551 247.075 539.157 243.14 545.596C239.714 551.201 245.292 555.458 249.788 557.67C252.387 558.947 255.755 559.78 257.993 561.671C259.035 562.552 254.042 566.262 253.418 566.716C249.713 569.421 245.605 571.591 241.547 573.701C239.19 574.927 236.797 576.079 234.399 577.221C232.343 578.198 231.018 578.495 230.638 580.862C226.338 607.625 221.192 634.261 215.894 660.839C215.58 662.416 216.589 664.002 218.291 664.002C234.128 664.002 249.963 664.002 265.8 664.002C269.006 664.002 269.006 659.005 265.801 659.005Z" fill="#BFD2FA"/>
<path d="M322.052 671.104C322.052 676.273 322.052 681.44 322.052 686.609C322.88 685.776 323.708 684.944 324.537 684.11C293.731 684.11 262.926 684.11 232.122 684.11C197.421 684.11 162.72 684.11 128.019 684.11C127.663 684.11 127.308 684.11 126.952 684.11C127.781 684.944 128.609 685.776 129.437 686.609C129.437 681.441 129.437 676.273 129.437 671.104C129.027 671.824 128.616 672.543 128.207 673.262C131.912 671.2 135.618 669.14 139.324 667.078C140.828 666.242 142.331 665.406 143.836 664.569C144.72 664.078 146.064 664.001 144.219 664.001C144.333 664.001 144.446 664.001 144.559 664.001C149.705 664.001 154.851 664.001 159.996 664.001C181.856 664.001 203.715 664.001 225.575 664.001C238.984 664.001 252.394 664.001 265.803 664.001C265.217 663.757 264.632 663.513 264.046 663.269C264.997 664.227 266.526 664.001 267.768 664.001C270.338 664.001 272.908 664.001 275.478 664.001C283.108 664.001 290.737 664.001 298.367 664.001C301.026 664.001 303.685 664.001 306.345 664.001C307.018 664.001 307.692 664.001 308.366 664.001C309.447 664.001 306.604 663.121 308.203 664.093C313.229 667.149 318.256 670.206 323.282 673.262C326.032 674.933 328.529 670.611 325.791 668.947C320.862 665.951 315.934 662.953 311.005 659.957C308.12 658.203 303.987 659.004 300.742 659.004C289.1 659.004 277.448 658.85 265.809 659.011C266.394 659.255 266.979 659.5 267.566 659.743C266.558 658.73 264.802 659.004 263.499 659.004C260.836 659.004 258.173 659.004 255.51 659.004C246.2 659.004 236.889 659.004 227.579 659.004C205.557 659.004 183.534 659.004 161.511 659.004C155.86 659.004 150.21 659.004 144.558 659.004C142.434 659.004 139.707 661.156 137.89 662.166C133.826 664.426 129.762 666.687 125.697 668.947C124.937 669.37 124.467 670.241 124.467 671.104C124.467 676.272 124.467 681.439 124.467 686.608C124.467 687.97 125.597 689.107 126.952 689.107C157.757 689.107 188.562 689.107 219.367 689.107C254.068 689.107 288.768 689.107 323.469 689.107C323.825 689.107 324.181 689.107 324.537 689.107C325.891 689.107 327.022 687.97 327.022 686.608C327.022 681.44 327.022 676.273 327.022 671.104C327.022 667.883 322.052 667.883 322.052 671.104Z" fill="#BFD2FA"/>
<path d="M266.313 659.005C266.145 659.007 265.976 659.009 265.809 659.011C266.394 659.255 266.979 659.5 267.566 659.743C267.564 659.74 267.562 659.739 267.559 659.737C266.973 661.158 266.388 662.58 265.801 664.002C265.972 664.002 266.142 664.002 266.313 664.002C267.667 664.002 268.798 662.865 268.798 661.503C268.798 660.141 267.667 659.005 266.313 659.005C266.142 659.005 265.973 659.005 265.801 659.005C263.634 659.005 262.51 661.728 264.044 663.27C264.683 663.913 265.477 664.014 266.313 664.002C267.667 663.983 268.798 662.88 268.798 661.503C268.799 660.156 267.667 658.986 266.313 659.005Z" fill="#BFD2FA"/>
<path d="M334.637 707.003C305.453 707.003 276.269 707.003 247.084 707.003C207.034 707.003 166.983 707.003 126.933 707.003C123.45 707.003 119.967 707.003 116.485 707.003C117.314 707.836 118.142 708.669 118.97 709.502C118.97 702.117 118.97 694.733 118.97 687.348C118.142 688.182 117.314 689.014 116.485 689.847C145.67 689.847 174.854 689.847 204.038 689.847C244.089 689.847 284.138 689.847 324.189 689.847C327.672 689.847 331.154 689.847 334.637 689.847C333.809 689.014 332.981 688.182 332.152 687.348C332.152 694.733 332.152 702.117 332.152 709.502C332.152 712.724 337.122 712.724 337.122 709.502C337.122 702.117 337.122 694.733 337.122 687.348C337.122 685.986 335.992 684.85 334.637 684.85C305.453 684.85 276.269 684.85 247.084 684.85C207.034 684.85 166.983 684.85 126.933 684.85C123.45 684.85 119.967 684.85 116.485 684.85C115.13 684.85 114 685.986 114 687.348C114 694.733 114 702.117 114 709.502C114 710.864 115.13 712 116.485 712C145.67 712 174.854 712 204.038 712C244.089 712 284.138 712 324.189 712C327.672 712 331.154 712 334.637 712C337.842 712 337.842 707.003 334.637 707.003Z" fill="#BFD2FA"/>
<path d="M138.868 34.0077C139.186 34.1205 139.172 34.159 138.661 33.8571C138.352 33.6743 137.925 33.326 137.617 32.9176C135.968 30.7383 136.233 27.7302 136.719 25.2118C137.685 20.2057 141.065 14.3786 138.518 9.31114C137.217 10.3205 135.915 11.3299 134.614 12.3392C136.801 14.1602 139.526 16.8128 139.762 19.8031C140.014 22.9746 144.702 23.0639 144.733 19.8031C144.761 16.7964 145.431 13.3643 147.44 11.0529C149.565 8.60801 152.535 6.60285 153.091 3.11434C151.493 3.11434 149.895 3.11434 148.298 3.11434C149.531 6.53717 150.565 10.2341 150.412 13.8961C150.337 15.6942 152.618 17.1398 154.152 16.0533C156.798 14.1795 159.538 11.8852 160.92 8.88069C159.407 8.23896 157.892 7.59722 156.378 6.95548C155.704 11.9366 155.762 17.0819 157.112 21.9453C158.033 25.2589 157.793 29.0365 156.062 32.0225C155.038 33.7907 155.295 33.9206 153.434 33.9206C151.408 33.9206 149.383 33.9206 147.358 33.9206C144.308 33.9206 141.258 33.9206 138.208 33.9206C135.003 33.9206 135.003 38.9174 138.208 38.9174C141.721 38.9174 145.234 38.9174 148.747 38.9174C152.9 38.9174 155.832 39.5884 158.944 36.4026C162.514 32.7485 162.914 27.2127 162.267 22.425C161.966 20.1957 161.239 18.0963 161.033 15.8334C160.884 14.1938 160.92 12.5362 160.981 10.8937C161.001 10.3619 161.26 7.62577 161.171 8.28464C161.513 5.75053 157.925 3.54121 156.629 6.35943C155.601 8.59302 153.622 10.3376 151.644 11.7396C152.89 12.4584 154.137 13.178 155.383 13.8968C155.554 9.80725 154.47 5.61062 153.091 1.7866C152.344 -0.287086 148.725 -0.88528 148.299 1.7866C147.713 5.46714 143.344 7.51584 141.718 10.7881C140.371 13.4992 139.791 16.7821 139.762 19.8031C141.419 19.8031 143.076 19.8031 144.733 19.8031C144.38 15.3552 141.463 11.5847 138.129 8.80645C135.965 7.00331 132.912 9.22048 134.226 11.8345C135.2 13.7712 133.822 17.4646 133.263 19.4355C132.18 23.2438 130.914 26.8807 131.59 30.9061C132.162 34.3075 134.186 37.634 137.548 38.8282C140.577 39.9025 141.869 35.0734 138.868 34.0077Z" fill="#FFDD2D"/>
</svg>
