<svg width="39" height="32" viewBox="0 0 39 32" fill="none" xmlns="http://www.w3.org/2000/svg">
<path d="M13.0513 7.04654C12.8122 7.01911 12.5719 7.00384 12.3313 7.0008C10.82 6.97794 9.3421 7.44779 8.11883 8.33996L0.889786 13.4471C0.618242 13.6455 0.396452 13.9048 0.242019 14.2044C0.0875859 14.504 0.00476232 14.8357 0.000121969 15.1731L-0.000745775 30C-0.00627365 30.5346 0.200067 30.9495 0.571556 31.3322C0.943045 31.7149 1.45028 31.9341 1.98221 31.9418L6.63743 32H6.85675C9.39045 31.9969 11.8949 31.4555 14.2058 30.4113C15.5915 29.7733 16.8527 28.8916 17.93 27.8078C18.5466 27.1954 19.2326 26.658 19.9741 26.2066L28.159 21.2159C28.8949 20.7705 29.4591 20.0878 29.7597 19.279C30.0602 18.4702 30.0795 17.583 29.8142 16.7618C29.5672 16.0291 29.1003 15.3914 28.4778 14.9364C27.8554 14.4813 27.108 14.2313 26.3383 14.2207C25.8736 14.2156 25.4119 14.2974 24.9769 14.4619L15.4844 18.0635C15.3521 18.1132 15.2119 18.1385 15.0706 18.1384C14.8913 18.1356 14.7148 18.0922 14.5544 18.0116C14.3939 17.931 14.2536 17.8151 14.1437 17.6726C13.9716 17.431 13.8869 17.1374 13.9037 16.8408L13.9658 8.08211C13.9674 7.8265 13.8749 7.57931 13.7061 7.38813C13.5372 7.19695 13.304 7.07528 13.0513 7.04654ZM14.9961 20.2053C15.4001 20.2113 15.8016 20.1407 16.1796 19.9974H16.2086L25.7011 16.3999C25.8929 16.3274 26.0962 16.2908 26.3011 16.2918C26.6508 16.2961 26.9905 16.4098 27.273 16.617C27.5555 16.8242 27.7668 17.1146 27.8777 17.448C27.9913 17.8235 27.9755 18.2265 27.8328 18.5918C27.6901 18.9572 27.4289 19.2634 27.0914 19.4609L18.9107 24.4516C18.031 24.9874 17.2172 25.6253 16.4858 26.3522C15.5784 27.2635 14.5162 28.0044 13.3492 28.5398C11.2454 29.4912 8.97182 30.0253 6.66501 30H2.00001V15.1731L9.32298 10.016C10.0749 9.46724 10.9656 9.14289 11.8927 9.08025L11.7975 16.8158C11.7768 17.5831 12.0177 18.3345 12.4803 18.9452C12.7789 19.3312 13.1601 19.6448 13.5956 19.8629C14.031 20.0811 14.5097 20.1981 14.9961 20.2053Z" fill="#FFDD2D"/>
<path d="M19.1747 31.7434C19.7742 31.6882 20.3488 31.4877 20.8437 31.1609C21.4976 31.7048 22.3375 32.0031 23.2059 32C23.32 32 23.4356 32 23.5526 32C24.0396 31.9533 24.5113 31.8117 24.9384 31.584C25.3654 31.3562 25.7386 31.0472 26.0346 30.6761C26.5796 30.8998 27.1747 30.9902 27.7658 30.9389C28.3568 30.8876 28.925 30.6963 29.4185 30.3825C29.912 30.0687 30.3151 29.6423 30.5912 29.1421C30.8672 28.642 31.0073 28.0841 30.9988 27.5193C30.9988 27.4921 30.9988 27.4636 30.9988 27.4337L30.6393 23.9632C30.632 23.8261 30.5956 23.6917 30.5322 23.5684C30.4688 23.4451 30.3797 23.3353 30.2704 23.2457C30.161 23.1561 30.0337 23.0885 29.8962 23.0471C29.7586 23.0058 29.6137 22.9914 29.4701 23.0049C29.3265 23.0185 29.1874 23.0596 29.061 23.1258C28.9346 23.1921 28.8237 23.2821 28.735 23.3903C28.6462 23.4986 28.5815 23.6229 28.5447 23.7557C28.5079 23.8885 28.4999 24.027 28.521 24.1628L28.8762 27.5844C28.8766 27.8577 28.7903 28.1246 28.6286 28.3504C28.4669 28.5761 28.2374 28.7502 27.9701 28.8496C27.7027 28.9491 27.4101 28.9695 27.1304 28.908C26.8507 28.8465 26.5971 28.706 26.4027 28.505C26.2712 28.3734 26.105 28.2778 25.9215 28.2281C25.738 28.1785 25.5438 28.1767 25.3593 28.2229C25.1748 28.2691 25.0066 28.3616 24.8725 28.4908C24.7384 28.6199 24.6431 28.781 24.5967 28.9572C24.5284 29.2333 24.3711 29.4823 24.1467 29.6691C23.9224 29.8559 23.6423 29.9714 23.3457 29.9992C23.049 30.027 22.7507 29.9659 22.4924 29.8243C22.234 29.6828 22.0287 29.4679 21.905 29.2097C21.8234 29.046 21.6971 28.906 21.5394 28.8045C21.3817 28.7029 21.1983 28.6434 21.0083 28.6322C20.8182 28.6209 20.6285 28.6584 20.4588 28.7406C20.2891 28.8228 20.1457 28.9468 20.0434 29.0997C19.9278 29.2775 19.7708 29.4277 19.5846 29.5386C19.3984 29.6494 19.1878 29.7181 18.9693 29.7392C18.6855 29.7657 18.4245 29.8984 18.2435 30.1081C18.0625 30.3178 17.9765 30.5873 18.0043 30.8574C18.0321 31.1275 18.1715 31.376 18.3918 31.5482C18.6121 31.7205 18.8952 31.8024 19.179 31.7759L19.1747 31.7434Z" fill="#FFDD2D"/>
<path d="M35.933 1.03372e-05H19.0536C18.2438 0.00108452 17.4675 0.337174 16.8949 0.93457C16.3223 1.53197 16.0002 2.3419 15.9991 3.18675V13.8227C15.9991 14.0919 16.1016 14.35 16.2841 14.5404C16.4665 14.7307 16.7139 14.8376 16.9719 14.8376C17.2299 14.8376 17.4773 14.7307 17.6598 14.5404C17.8422 14.35 17.9447 14.0919 17.9447 13.8227V7.41273H37.0536V17.8051C37.0526 18.1138 36.9346 18.4095 36.7254 18.6278C36.5162 18.8461 36.2327 18.9692 35.9369 18.9702H31.863C31.605 18.9702 31.3575 19.0772 31.1751 19.2675C30.9927 19.4578 30.8902 19.7159 30.8902 19.9851C30.8902 20.2543 30.9927 20.5124 31.1751 20.7027C31.3575 20.8931 31.605 21 31.863 21H35.9369C36.3388 21.0005 36.737 20.9184 37.1085 20.7583C37.48 20.5982 37.8176 20.3632 38.102 20.0669C38.3864 19.7705 38.612 19.4186 38.766 19.0312C38.9199 18.6438 38.9991 18.2286 38.9991 17.8092V3.19487C38.9997 2.77482 38.9207 2.3588 38.7667 1.97068C38.6128 1.58255 38.3869 1.22996 38.102 0.933131C37.8171 0.636301 37.4789 0.401075 37.1067 0.240947C36.7345 0.0808192 36.3356 -0.00105883 35.933 1.03372e-05ZM17.9369 5.39514V3.18675C17.9379 2.87808 18.0559 2.58235 18.2651 2.36409C18.4743 2.14582 18.7578 2.02273 19.0536 2.02166H35.933C36.2295 2.02166 36.514 2.14428 36.724 2.36266C36.9341 2.58104 37.0526 2.87737 37.0536 3.18675V5.39514H17.9369Z" fill="#FFDD2D"/>
</svg>
