<svg width="105" height="57" viewBox="0 0 105 57" fill="none" xmlns="http://www.w3.org/2000/svg">
<g clip-path="url(#clip0_0_775)">
<path d="M104.839 42.0716C104.838 42.4307 104.697 42.775 104.446 43.0288C104.195 43.2827 103.856 43.4254 103.501 43.4258C103.325 43.4263 103.151 43.3913 102.989 43.3229C102.827 43.2545 102.68 43.1542 102.556 43.0276C102.432 42.9025 102.333 42.7534 102.265 42.5892C102.198 42.4249 102.164 42.2488 102.164 42.0709C102.164 41.7085 102.303 41.3689 102.556 41.1139C102.808 40.8574 103.143 40.7175 103.501 40.7175C103.859 40.7175 104.193 40.8574 104.446 41.1139C104.57 41.2394 104.669 41.3887 104.737 41.553C104.804 41.7174 104.839 41.8937 104.839 42.0716ZM103.501 40.5558C103.104 40.5561 102.724 40.7158 102.444 40.9999C102.163 41.284 102.006 41.6692 102.005 42.0709C102.005 42.4775 102.161 42.858 102.444 43.1419C102.582 43.2833 102.747 43.3955 102.929 43.4718C103.111 43.5481 103.305 43.5871 103.502 43.5864C103.902 43.5864 104.277 43.4294 104.559 43.1419C104.7 43.0021 104.81 42.8353 104.886 42.6513C104.961 42.4674 104.999 42.2701 104.998 42.0709C104.999 41.8717 104.961 41.6744 104.885 41.4904C104.81 41.3064 104.699 41.1395 104.559 40.9992C104.421 40.8583 104.256 40.7466 104.074 40.6705C103.892 40.5944 103.698 40.5554 103.501 40.5558Z" fill="black"/>
<path d="M103.263 41.3372V41.8855C103.263 41.8855 103.826 41.9231 103.826 41.6146C103.826 41.2562 103.263 41.3336 103.263 41.3372ZM103.263 42.232V43.1037H102.899V41.028C103.348 41.028 104.141 40.909 104.141 41.6049C104.141 42.0494 103.815 42.1651 103.815 42.1651L104.253 43.1041H103.891L103.472 42.2328L103.263 42.232ZM79.1167 34.7808V28.4017C79.1167 28.4017 79.0267 25.5049 76.1579 25.5049C74.3602 25.5049 73.1981 27.1144 73.1981 28.4017C73.1981 30.4507 75.0516 31.2967 76.1579 31.2967C76.8201 31.2967 77.2643 31.1809 78.2496 30.4785C78.2496 32.9955 78.2203 34.4654 78.2496 34.4586C77.5918 34.6344 77.3522 34.7743 76.1579 34.7743C72.511 34.7743 69.6469 31.854 69.6469 28.4013C69.6469 24.0133 73.5335 22.0283 76.1579 22.0283C79.4449 22.0283 82.6683 24.5974 82.6683 28.4013C82.6683 30.7422 82.6744 30.6843 82.6744 31.3278V34.7845L79.1167 34.7808ZM52.9368 28.9124V22.3492L56.5248 20.7697V29.6492C56.5248 36.6132 45.1051 36.6132 45.1051 29.7664V25.8265L48.692 24.2202V28.9464C48.6917 32.2251 52.9368 32.1904 52.9368 28.9124Z" fill="#EB1B23"/>
<path d="M69.0801 34.9253C69.0801 34.9253 67.2663 35.0385 66.0924 34.3991C63.9386 33.2283 64.1772 29.807 64.1772 29.807V23.136H61.8466V19.6222H64.1772V17.4574L67.7655 15.8201V19.7401H70.0968V23.1939H67.7655V30.0689C67.7655 30.0689 67.8259 31.7048 69.0808 31.7048L69.0801 34.9253ZM57.4808 22.3428H61.0677V34.7716H57.4808V22.3428ZM57.4808 21.3793L61.0677 21.355V18.8029L57.4808 20.3839V21.3793Z" fill="#EB1B23"/>
<path d="M90.1499 21.4953V25.1831C87.5193 25.1831 87.6372 26.7623 87.6372 28.2257V34.7809H84.0499V26.1188C84.0499 21.6129 87.6989 21.4953 90.1499 21.4953ZM83.4142 9.33055C83.301 9.08279 82.836 9.04879 82.3207 9.23072L82.175 8.90882L82.3267 8.8372L82.2003 4.37177L78.9327 1.37081L78.7794 1.44243L78.6327 1.12052C79.1048 0.84166 79.3805 0.461884 79.2698 0.214849C79.1387 -0.0687165 78.5488 -0.0716101 77.9506 0.207254C77.3495 0.48865 76.9692 0.945104 77.0967 1.22795C77.2081 1.47534 77.6727 1.5097 78.1884 1.32777L78.337 1.64968L75.6053 2.92355L75.4596 2.6002C75.93 2.32315 76.2092 1.94301 76.0953 1.69597C75.966 1.41169 75.3754 1.40843 74.7757 1.69019C74.1751 1.96869 73.7947 2.42478 73.9219 2.70943C74.0351 2.95683 74.5001 2.98938 75.0154 2.80745L75.1622 3.12899L72.5337 4.3573L72.388 4.03539C72.8598 3.75508 73.1373 3.37531 73.023 3.12791C72.8944 2.84507 72.3034 2.84181 71.7038 3.12068C71.1035 3.40207 70.7238 3.85816 70.8503 4.14101C70.9635 4.38877 71.4284 4.42276 71.9438 4.24083L72.0909 4.56274L71.7659 4.7132L70.7728 7.53367L34.0459 24.4872C32.3067 22.9244 29.3501 22.592 26.6206 23.8673C23.1708 25.4754 21.3963 29.0261 22.6559 31.7959C23.9154 34.5672 27.7331 35.509 31.1829 33.8995C33.6681 32.7388 35.2773 30.5705 35.5144 28.413L37.3329 27.5576C37.4593 27.5073 38.551 27.1149 39.7956 28.3772C40.5224 30.0265 41.1698 31.8046 40.7559 32.9215C40.6809 33.1248 40.4513 33.7414 39.2349 34.2894C38.4214 34.6562 37.7122 34.8186 36.8133 35.024C35.4791 35.3278 33.8163 35.708 31.2522 36.9037C29.0234 37.9429 27.7699 39.9466 26.4414 42.0701C24.664 44.9105 22.6498 48.1284 17.6715 50.4498C16.3444 51.0683 15.1217 51.1529 13.9317 50.708C10.2741 49.3405 7.4521 43.1338 6.52715 41.0957C4.63797 36.9399 2.27382 31.0128 3.55518 27.499C3.94801 26.4233 4.68047 25.6486 5.79434 25.127C10.8455 22.7714 14.4438 22.9486 17.6154 23.1048C19.9389 23.217 22.1323 23.324 24.2879 22.3196C26.8521 21.1246 27.9484 20.22 28.8294 19.4944C29.4133 19.013 29.8358 18.6658 30.6211 18.2994C31.6704 17.8093 32.6914 17.7543 33.6492 18.1341C35.0998 18.7092 36.103 20.1035 36.5579 21.2186L39.5106 19.9802C38.5971 17.741 36.8418 15.9245 34.8148 15.1198C33.0406 14.4163 31.1293 14.498 29.2844 15.3596C28.1323 15.8963 27.4617 16.4486 26.8142 16.9821C26.0317 17.6259 25.1475 18.3547 22.9509 19.3794C21.5063 20.0532 19.8585 19.9711 17.7722 19.8699C14.406 19.7046 10.2191 19.5006 4.45941 22.1869C2.56166 23.0734 1.2496 24.4825 0.558206 26.3781C-1.11598 30.9673 1.31745 37.3775 3.6241 42.451C5.47043 46.5124 8.43204 52.1038 12.8236 53.7441C14.8213 54.492 16.9019 54.3727 19.01 53.3907C24.8418 50.6704 27.2253 46.8611 29.1405 43.8019C30.3001 41.9482 31.2179 40.4837 32.5892 39.845C34.8473 38.7896 36.2644 38.4662 37.5147 38.1816C38.5003 37.9552 39.4317 37.7436 40.5334 37.2473C42.1533 36.5182 43.2361 35.4447 43.7482 34.0572C44.7246 31.4125 43.379 28.4879 42.1915 25.9083L41.953 25.3853L72.3884 11.0898L75.1604 12.1807L75.4839 12.0288L75.6311 12.3507C75.1589 12.6292 74.8832 13.0093 74.9957 13.2563C75.1247 13.5399 75.7153 13.5424 76.3139 13.2639C76.9138 12.9822 77.2952 12.5261 77.167 12.2432C77.0542 11.9959 76.5903 11.9619 76.0753 12.1438L75.9282 11.8219L78.5552 10.5968L78.7023 10.9187C78.2316 11.1958 77.9549 11.5759 78.067 11.823C78.1963 12.1076 78.7866 12.1105 79.3851 11.8306C79.9855 11.5503 80.3679 11.0942 80.2383 10.8099C80.1258 10.5625 79.6619 10.5296 79.1455 10.7118L78.9998 10.3899L81.7304 9.11715L81.875 9.43942C81.4047 9.71648 81.1265 10.0963 81.24 10.3436C81.3693 10.6269 81.9596 10.6301 82.5592 10.3498C83.161 10.0713 83.5438 9.61376 83.4142 9.33055ZM80.7251 53.7965C80.7251 53.7965 78.9759 53.8992 77.8356 53.2702C75.8046 52.1497 75.9871 48.1136 75.9871 48.1136V41.0313H73.7333V37.4878H75.9871V35.9785H79.4594L79.4537 37.6058H81.7079V41.091H79.4537V48.9404C79.4537 48.9404 79.5123 50.5778 80.7251 50.5778V53.7965Z" fill="#EB1B23"/>
<path d="M52.0625 53.5451C49.0331 57.0481 45.8011 57.0004 44.5887 57.0004C38.4287 57.0004 34.6639 51.7034 34.6639 46.9472C34.6639 42.6528 37.5019 37.9884 43.038 37.0607C46.5207 36.4751 49.9055 37.821 52.2639 40.5044C51.5061 41.0679 49.7909 42.3964 49.7909 42.3964C47.921 40.6577 46.6086 40.0765 44.5887 40.0765C42.9734 40.0765 37.8062 41.4238 37.8062 46.9472C37.8062 50.5782 40.65 53.8432 44.5887 53.8178C47.5428 53.8016 48.832 52.2666 49.638 51.4994L52.0625 53.5451ZM70.7279 46.5225V53.6735H74.1956V45.4707C74.1956 38.5046 63.1569 38.5046 63.1569 45.3532V53.6735H66.626V46.4061C66.626 43.2453 70.7279 43.1874 70.7279 46.5225ZM101.122 40.4472V44.135C98.5792 44.135 98.6956 45.7127 98.6956 47.1761V53.6797H95.2276V45.0685C95.2283 40.9655 98.7942 40.4472 101.122 40.4472ZM85.786 44.6378C85.786 44.6378 84.3868 45.92 85.0532 47.6416L88.7504 43.8959C88.7504 43.8952 87.3852 43.1859 85.786 44.6378ZM86.7909 50.5326C86.7663 50.5489 87.6091 50.695 87.8505 50.695C89.6868 50.695 90.5943 49.3777 90.5943 49.3777C90.5943 49.3777 93.6102 49.3864 94.0409 49.3792C94.0409 49.3792 93.2441 51.4824 91.8081 52.4203C86.2795 56.0303 82.7822 51.5573 82.0951 50.3865C81.0609 48.6156 80.4988 43.5129 84.4185 41.3084C90.315 37.9953 93.6016 43.7556 93.6016 43.7556L86.7909 50.5326Z" fill="#EB1B23"/>
<path d="M54.3067 44.6377C54.3067 44.6377 52.9053 45.9185 53.5721 47.6416L57.2701 43.8966C57.2701 43.8966 55.9052 43.1874 54.3067 44.6377ZM62.5608 49.3799C62.5608 49.3799 61.7637 51.4835 60.3278 52.421C54.7991 56.0328 51.3018 51.5598 50.6147 50.3872C49.5791 48.6167 49.017 43.5136 52.9378 41.3095C58.8346 37.9957 62.1212 43.7549 62.1212 43.7549L55.3113 50.5326C55.288 50.5489 56.1291 50.695 56.3705 50.695C58.2082 50.695 59.1132 49.3777 59.1132 49.3777L62.5608 49.3799Z" fill="#EB1B23"/>
</g>
<defs>
<clipPath id="clip0_0_775">
<rect width="105" height="57" fill="white"/>
</clipPath>
</defs>
</svg>
