<svg width="64" height="64" viewBox="0 0 64 64" fill="none" xmlns="http://www.w3.org/2000/svg">
<g clip-path="url(#clip0_1_291)">
<path d="M10.6 40.1322L32 8.09912L53.4 40.1322H48.4L32 15.8347L15.6 40.1322H10.6Z" fill="#C2D2F4"/>
<path d="M10.6 40.1322L32 8.09912L53.4 40.1322H48.4L32 15.8347L15.6 40.1322H10.6Z" fill="#B7C6E7"/>
<path d="M3.3 51.0413L10 41.1239H18.5L24 48.6611H18.9L23.2 54.9091L26.3 50.2479L19.7 41.1239H25.1L28.9 46.4793L32.5 41.1239H37.6L27.7 56H0L2.7 52.033H16.5L12.1 45.7851H17.1L16.4 44.7933H12.5L8.1 51.0413H3.3Z" fill="#C2D2F4"/>
<path d="M3.3 51.0413L10 41.1239H18.5L24 48.6611H18.9L23.2 54.9091L26.3 50.2479L19.7 41.1239H25.1L28.9 46.4793L32.5 41.1239H37.6L27.7 56H0L2.7 52.033H16.5L12.1 45.7851H17.1L16.4 44.7933H12.5L8.1 51.0413H3.3Z" fill="#B7C6E7"/>
<path d="M38.8 41.1239H43.9L42 44H45V47.9669H39.3L36.6 52.033H45.2V56H28.8L38.8 41.1239Z" fill="#C2D2F4"/>
<path d="M38.8 41.1239H43.9L42 44H45V47.9669H39.3L36.6 52.033H45.2V56H28.8L38.8 41.1239Z" fill="#B7C6E7"/>
<path d="M46.2 41.1239H54L56.5 44.7933H50.3V45.7851H57.1L59.7 49.6529H50.3V52.0328H61.3L64 56H46.2V41.1239Z" fill="#C2D2F4"/>
<path d="M46.2 41.1239H54L56.5 44.7933H50.3V45.7851H57.1L59.7 49.6529H50.3V52.0328H61.3L64 56H46.2V41.1239Z" fill="#B7C6E7"/>
<path d="M28.2527 21.895L13.4209 43.4609M20.4214 22.2011C23.3533 20.2116 37.9228 15.5105 39.1315 17.304C41.1103 20.2402 26.1811 31.0949 21.7257 31.7221M31.3389 29.1259C29.5525 30.4412 27.0953 33.8318 27.763 34.6615C28.1254 35.112 31.9531 32.4439 33.063 31.4239M37.6478 27.2764C32.8434 30.6563 27.5197 37.9255 27.5197 39.5706C29.7958 38.6141 47.7729 33.7935 61.6667 35.2065M41.0219 27.213C40.3302 28.0068 35.7785 33.436 34.8494 35.0943M38.6217 29.3572C39.8794 28.0368 43.8736 26.0379 44.5022 27.1382C44.9151 28.4517 39.0977 31.5277 38.1285 30.9241C39.2464 31.9537 42.588 33.4277 43.9923 33.9848M51.8671 26.6515C49.6316 25.378 44.8843 31.6091 45.8826 33.1814C46.2128 33.7014 53.9068 28.8581 51.8671 26.6515Z" stroke="#FF007F" stroke-width="1.5" stroke-linejoin="round"/>
</g>
<defs>
<clipPath id="clip0_1_291">
<rect width="64" height="48" fill="white" transform="translate(0 8)"/>
</clipPath>
</defs>
</svg>
