<svg width="84" height="56" viewBox="0 0 84 56" fill="none" xmlns="http://www.w3.org/2000/svg">
<g clip-path="url(#clip0_0_192)">
<path d="M84 0H0V56H84V0Z" fill="#29327F"/>
<path d="M73.9042 37.8603H69.1878C69.0266 37.1432 68.8361 36.4486 68.7224 35.7422C68.7268 35.4992 68.6212 35.2671 68.435 35.1108C68.2488 34.9545 68.002 34.8906 67.7634 34.937C66.0136 34.9757 64.2609 34.9146 62.513 34.9827C62.1155 35.0635 61.7738 35.3153 61.5788 35.6711C61.2491 36.3891 60.963 37.1263 60.7219 37.8787H55.3824C55.5294 37.4797 55.6399 37.1345 55.7816 36.8019C58.1604 31.2123 60.5637 25.633 62.9099 20.0302C63.2981 18.7906 64.5063 17.9966 65.7982 18.132C67.0868 18.1775 68.3786 18.1415 69.7252 18.1415C71.1246 24.7452 72.5067 31.2668 73.9042 37.8603" fill="white"/>
<path d="M9.57043 18.2813C9.86336 18.2075 10.1619 18.1578 10.4629 18.1328C13.0197 18.1217 15.5766 18.1211 18.1337 18.131C18.803 18.0312 19.4835 18.2168 20.0094 18.6428C20.5352 19.0687 20.8582 19.6958 20.8996 20.3713C21.582 23.8196 22.2296 27.2749 22.8927 30.7269C22.9232 30.8858 22.9675 31.0419 23.0634 31.4399C23.2878 30.9921 23.432 30.7484 23.5369 30.489C25.075 26.6802 26.6232 22.8751 28.1273 19.0531C28.3883 18.39 28.679 18.0671 29.4686 18.1093C30.8921 18.1856 32.3229 18.131 33.9217 18.131C33.1247 20.0272 32.3876 21.7988 31.6362 23.5646C29.7296 28.044 27.7951 32.512 25.9281 37.0071C25.7563 37.651 25.1182 38.0543 24.4629 37.9332C23.032 37.8703 21.5962 37.9152 20.0472 37.9152C19.4621 35.7117 18.8771 33.527 18.3019 31.34C17.5217 28.3725 16.7053 25.4129 15.9934 22.4294C15.7953 21.2774 14.967 20.3342 13.8502 19.989C12.4352 19.5104 11.0125 19.054 9.59316 18.5881L9.57043 18.2813Z" fill="white"/>
<path d="M56.4448 18.7239C56.1602 20.0465 55.8866 21.3187 55.6064 22.621C54.4557 22.3139 53.2854 22.0854 52.1037 21.937C51.1353 21.8642 50.1624 21.9964 49.2484 22.3248C47.9665 22.8209 47.8829 23.9976 48.9853 24.8153C49.6502 25.261 50.3406 25.6673 51.053 26.0322C51.5671 26.3265 52.0877 26.6099 52.6035 26.9014C54.3946 27.8787 55.509 29.7562 55.5091 31.7966C55.5091 33.837 54.3949 35.7146 52.6039 36.6921C50.0282 38.0865 47.0545 38.5626 44.1721 38.0422C43.236 37.9232 42.3134 37.7148 41.4171 37.42C41.101 37.2533 40.8935 36.9351 40.8683 36.5787C41.0536 35.3933 41.3588 34.2261 41.5997 33.1472C43.2057 33.4777 44.7419 33.8925 46.3063 34.0757C47.1743 34.1533 48.0485 34.03 48.8613 33.7156C49.5216 33.5808 50.0239 33.0424 50.1128 32.3743C50.2016 31.7062 49.8575 31.0552 49.2553 30.7525C48.7346 30.4044 48.1942 30.0868 47.6367 29.8012C46.742 29.3351 45.8748 28.8179 45.0395 28.2522C43.7803 27.3814 42.9813 25.9889 42.8651 24.4623C42.7489 22.9357 43.3279 21.4383 44.4408 20.3869C45.6569 19.1671 47.2215 18.3546 48.9189 18.0616C51.4387 17.5486 54.0533 17.7787 56.4448 18.7239" fill="white"/>
<path d="M37.0965 37.8653H31.9331C33.367 31.2763 34.7867 24.7519 36.2145 18.1908H41.3673C39.9351 24.7876 38.5198 31.308 37.0964 37.8653" fill="white"/>
<path d="M66.187 23.8429C66.6753 26.16 67.1638 28.4773 67.6701 30.8797H63.317C64.2099 28.4557 65.0701 26.1201 65.9302 23.7846L66.187 23.8429Z" fill="#29327F"/>
</g>
<defs>
<clipPath id="clip0_0_192">
<rect width="84" height="56" rx="8" fill="white"/>
</clipPath>
</defs>
</svg>
