<svg width="22" height="22" viewBox="0 0 22 22" fill="none" xmlns="http://www.w3.org/2000/svg">
<path fill-rule="evenodd" clip-rule="evenodd" d="M6.46568 0.0664583C7.63903 0.0130625 8.01395 0 11.0014 0H10.998C13.9863 0 14.3599 0.0130625 15.5332 0.0664583C16.7043 0.120083 17.5041 0.305479 18.2053 0.5775C18.9295 0.858229 19.5414 1.23406 20.1533 1.84594C20.7651 2.45735 21.141 3.07106 21.4229 3.79454C21.6933 4.49396 21.8789 5.29329 21.9339 6.46433C21.9866 7.63767 22.0004 8.01258 22.0004 11C22.0004 13.9874 21.9866 14.3614 21.9339 15.5348C21.8789 16.7053 21.6933 17.5049 21.4229 18.2045C21.141 18.9278 20.7651 19.5415 20.1533 20.1529C19.5421 20.7648 18.9293 21.1415 18.206 21.4225C17.5061 21.6945 16.7059 21.8799 15.5348 21.9335C14.3615 21.9869 11 22 11 22C11 22 7.63811 21.9869 6.46477 21.9335C5.29394 21.8799 4.49437 21.6945 3.79449 21.4225C3.07146 21.1415 2.45775 20.7648 1.84655 20.1529C1.2349 19.5415 0.859063 18.9278 0.577872 18.2043C0.306078 17.5049 0.12068 16.7056 0.0668252 15.5345C0.013658 14.3612 0.000366211 13.9874 0.000366211 11C0.000366211 8.01258 0.0141164 7.63744 0.0665961 6.4641C0.119305 5.29352 0.304932 4.49396 0.577643 3.79431C0.859521 3.07106 1.23536 2.45735 1.84724 1.84594C2.45866 1.23429 3.07238 0.858458 3.79586 0.5775C4.49529 0.305479 5.29463 0.120083 6.46568 0.0664583ZM11.0004 2C11.0004 2 7.57107 1.99557 6.55631 2.04141C5.4838 2.09068 4.90148 2.26943 4.51373 2.42068C4.00039 2.62051 3.63372 2.85885 3.24872 3.24385C2.86371 3.62885 2.62492 3.99551 2.42554 4.50885C2.27498 4.8966 2.09577 5.47868 2.04673 6.55118C1.99402 7.71076 2.00037 11 2.00037 11C2.00037 11 1.99402 14.2805 2.04673 15.4401C2.09554 16.5126 2.27498 17.0947 2.42554 17.482C2.62538 17.9955 2.86371 18.3613 3.24872 18.7463C3.63372 19.1313 4.00039 19.3696 4.51373 19.569C4.90171 19.7196 5.4838 19.8988 6.55631 19.9483C7.71591 20.001 11.0004 20 11.0004 20C11.0004 20 14.2866 20.001 15.4462 19.9483C16.5188 19.8992 17.1013 19.7205 17.4886 19.5692C18.0022 19.3698 18.3677 19.1315 18.7527 18.7465C19.1377 18.3617 19.3765 17.9962 19.5759 17.4829C19.7264 17.0956 19.9056 16.5135 19.9547 15.441C20.0074 14.2814 20.0004 11 20.0004 11C20.0004 11 20.0074 7.71351 19.9547 6.55393C19.9059 5.48143 19.7264 4.89935 19.5759 4.51205C19.376 3.99872 19.1377 3.63205 18.7527 3.24705C18.3679 2.86205 18.0019 2.62372 17.4886 2.42435C17.1008 2.27378 16.5188 2.09457 15.4462 2.04553C14.2864 1.99282 11.0004 2 11.0004 2Z" fill="white"/>
<path fill-rule="evenodd" clip-rule="evenodd" d="M11 15C13.2091 15 15 13.2091 15 11C15 8.79086 13.2091 7 11 7C8.79081 7 6.99995 8.79086 6.99995 11C6.99995 13.2091 8.79081 15 11 15ZM11 17C14.3137 17 17 14.3137 17 11C17 7.68629 14.3137 5 11 5C7.68624 5 4.99995 7.68629 4.99995 11C4.99995 14.3137 7.68624 17 11 17Z" fill="white"/>
<path fill-rule="evenodd" clip-rule="evenodd" d="M17 4C16.4479 4 16 4.44747 16 4.99983C16 5.55201 16.4479 6 17 6C17.552 6 18 5.55201 18 4.99983C18 4.44765 17.552 4 17 4Z" fill="white"/>
</svg>
