<svg width="84" height="56" viewBox="0 0 84 56" fill="none" xmlns="http://www.w3.org/2000/svg">
<g clip-path="url(#clip0_0_212)">
<path d="M84 0H0V56H84V0Z" fill="#006CD3"/>
<mask id="mask0_0_212" style="mask-type:alpha" maskUnits="userSpaceOnUse" x="16" y="30" width="69" height="15">
<path d="M84.6832 34.7539H80.3124C79.9026 34.7539 79.5611 34.7539 79.3563 34.9587C79.0831 35.0953 79.0148 35.3685 79.0148 35.71C78.9976 36.0577 79.225 36.3704 79.5612 36.4612C79.8499 36.5451 80.1484 36.591 80.449 36.5978H81.7465C82.7262 36.5318 83.6967 36.8229 84.4783 37.4173C84.5626 37.4951 84.6321 37.5877 84.6832 37.6905V34.7539ZM84.6832 41.3783C83.8805 42.3378 82.647 42.8261 81.4051 42.6759H76.7611V40.4905H81.4051C81.748 40.5374 82.0948 40.4383 82.3612 40.2173C82.5442 40.0382 82.6434 39.7903 82.6343 39.5344C82.6292 39.2811 82.5321 39.0384 82.3612 38.8515C82.118 38.6948 81.8299 38.6227 81.5417 38.6466C79.288 38.5783 76.488 38.7149 76.488 35.5051C76.4857 34.6337 76.8596 33.8038 77.5138 33.2282C78.1679 32.6525 79.0386 32.3872 79.9026 32.5002H84.6832V30.5197H80.2441C79.1814 30.4719 78.1305 30.7585 77.2392 31.3392V30.5197H70.683C69.6638 30.478 68.6581 30.7653 67.8147 31.3392V30.5197H56.0683V31.3392C55.0923 30.7805 53.9829 30.4972 52.8585 30.5197H45.0731V31.3392C44.0473 30.7186 42.8541 30.4322 41.6584 30.5197H33.0534L31.0729 32.7735L29.229 30.6563H16.2533V44.6565H28.9558L31.0046 42.4711L32.9168 44.6565H40.7706V41.3784H41.5218C42.6582 41.4504 43.7973 41.2877 44.8682 40.9004V44.6565H51.356V41.037H51.6975C52.1073 41.037 52.1073 41.037 52.1073 41.4467V44.6565H71.7075C72.8629 44.6831 74.0014 44.3748 74.9855 43.7687V44.6565H81.2002C82.412 44.6757 83.6166 44.4672 84.7515 44.0419V41.3783H84.6832ZM75.0539 37.349C75.5953 37.915 75.8687 38.6855 75.8051 39.4661C75.8051 41.6515 74.4393 42.6076 72.049 42.6076H67.3367V40.4905H71.9806C72.3235 40.5374 72.6703 40.4383 72.9367 40.2173C73.1198 40.0382 73.2189 39.7903 73.2099 39.5344C73.2048 39.2811 73.1077 39.0384 72.9367 38.8515C72.6716 38.6867 72.3594 38.6146 72.0489 38.6466C69.7952 38.5783 66.9952 38.7149 66.9952 35.5051C66.9806 34.6297 67.3509 33.792 68.0082 33.2136C68.6655 32.6352 69.5434 32.3744 70.4099 32.5002H75.1903V34.6173H70.8196C70.3416 34.6173 70.0684 34.6173 69.8635 34.8221C69.5903 34.9587 69.522 35.2319 69.522 35.5734C69.5048 35.9211 69.7323 36.2339 70.0684 36.3246C70.3794 36.4134 70.7011 36.4593 71.0245 36.4612H72.3221C73.3078 36.4337 74.2727 36.7473 75.0538 37.349H75.0539ZM53.4049 36.7344C53.0437 36.9066 52.6424 36.9774 52.244 36.9393H49.3073V34.6856H52.2439C52.6425 34.641 53.0456 34.7121 53.4048 34.8905C53.7377 35.0536 53.9299 35.4105 53.8829 35.7783C53.9449 36.1665 53.7526 36.551 53.4048 36.7344H53.4049ZM54.9074 37.9637C55.3613 38.127 55.7624 38.4102 56.0683 38.7832C56.4104 39.3334 56.5549 39.9838 56.4781 40.6271V42.6076H54.0877V41.3783C54.0877 40.7637 54.156 39.8759 53.678 39.3978C53.1727 39.0097 52.5342 38.8378 51.9023 38.9198H49.3073V42.6077H46.9171V32.6368H52.4489C53.4299 32.5529 54.4163 32.7173 55.3172 33.1148C56.1276 33.5658 56.6061 34.443 56.5465 35.3685C56.6035 36.493 55.9472 37.532 54.9073 37.9636L54.9074 37.9637ZM57.9123 32.6368H65.9026V34.7539H60.3025V36.5978H65.7659V38.6466H60.3025V40.6271H65.9025V42.7442H57.9122L57.9123 32.6368ZM41.7268 37.2808H38.5852V34.7539H41.7267C42.6145 34.7539 43.1608 35.0953 43.1608 35.9832C43.2292 36.8027 42.6145 37.2807 41.7267 37.2807L41.7268 37.2808ZM36.195 41.7881L32.5071 37.6905L36.195 33.7295V41.7881ZM26.7023 40.5588H20.8289V38.5783H26.0875V36.5295H20.8289V34.6856H26.8387L29.4339 37.6223L26.7023 40.5588ZM45.7561 35.9149C45.7561 38.7149 43.7073 39.2612 41.5902 39.2612H38.5852V42.6076H33.9413L31.0046 39.2612L27.9314 42.6076L18.4387 42.6076V32.6368H28.0679L31.0045 35.9149L34.0777 32.6368H41.7266C43.6389 32.6368 45.756 33.1831 45.756 35.9149L45.7561 35.9149Z" fill="white"/>
</mask>
<g mask="url(#mask0_0_212)">
<path d="M12.8385 27.2416H88.0977V48.071H12.8385V27.2416Z" fill="#FFFFFE"/>
</g>
<path d="M3.68835 21.1174H6.9658L5.32601 17.0874L3.68835 21.1174Z" fill="#FFFFFE"/>
<path d="M74.0294 15.1067L73.0733 13.4677H66.244V15.1067L65.3561 13.4677H56.1366C54.7456 13.3933 53.3586 13.6754 52.1072 14.2872V13.4677H45.756V14.2872C44.9788 13.6841 44.005 13.392 43.0243 13.4677H19.7363L18.1655 17.0872L16.5948 13.4677H9.21898V15.1067L8.39951 13.4677H2.11656L-0.751709 20.0922V27.4678H3.34587L4.302 25.2141H6.3508L7.23859 27.4678H15.3655V25.7605L16.1168 27.4678H20.2826L20.9655 25.7605V27.4678H41.0438V23.78H41.4536C41.7267 23.78 41.795 23.8484 41.795 24.258V27.4678H52.1756V26.5799C53.3519 27.2022 54.6698 27.5082 56 27.4677H60.3708L61.3268 25.2141H63.3756L64.2634 27.4678H72.6635V25.3508L73.961 27.4678H80.7221V13.4677H74.0294V15.1067ZM25.1314 25.4874H22.7412V17.6336L19.2582 25.4874H17.1411L13.6582 17.6336V25.4874H8.80935L7.85325 23.2336H2.86779L1.91175 25.4874H-0.683466L3.61901 15.4482H7.17027L11.2679 24.941V15.4482H15.1606L18.3021 22.2775L21.1704 15.4482H25.1314V25.4874ZM34.9656 17.5654H29.3656V19.3409H34.8291V21.3897H29.3656V23.3702H34.9656V25.4874H26.9753V15.4482H34.9656V17.5654ZM45.756 21.5947C46.0981 22.145 46.2426 22.7953 46.1657 23.4386V25.419H43.7755V24.1215C43.7755 23.5068 43.844 22.619 43.3658 22.141C43.0243 21.7995 42.478 21.7312 41.5902 21.7312H38.995V25.3507H36.6048V15.4482H42.1365C43.1395 15.3715 44.1462 15.5354 45.0731 15.9263C45.8797 16.3467 46.3619 17.2039 46.3024 18.1116C46.3342 19.2658 45.6571 20.3221 44.5951 20.7751C45.049 20.9384 45.4502 21.2216 45.756 21.5946V21.5947ZM50.1268 25.4874H47.6682V15.4482H50.1268V25.4874ZM76.1466 15.4482H78.6052V25.4874H75.1221L70.5465 17.9752V25.4874H65.6293L64.6731 23.2337H59.7559L58.8683 25.4874H56.0683C54.8133 25.5571 53.5756 25.1689 52.5853 24.3948C51.6508 23.3494 51.1823 21.9685 51.2878 20.5702C51.1691 19.1497 51.6381 17.7427 52.5853 16.6775C53.5758 15.8003 54.889 15.3791 56.2048 15.5166H58.5268V17.6337H56.2732C55.5972 17.5492 54.9193 17.7752 54.4293 18.2484C53.9305 18.8892 53.6871 19.6922 53.7463 20.5021C53.6689 21.356 53.9124 22.2082 54.4293 22.8923C54.8769 23.2927 55.47 23.4904 56.0683 23.4386H57.161L60.5756 15.5166H64.1952L68.2244 25.0093V15.4482H71.9123L76.1466 22.4141V15.4482Z" fill="#FFFFFE"/>
<path d="M43.1609 17.702C42.8016 17.5237 42.3986 17.4526 42 17.4971H39.0634V19.7508H42C42.3984 19.789 42.7997 19.7182 43.1609 19.5459C43.4878 19.3429 43.6727 18.9732 43.639 18.5898C43.6861 18.2221 43.4939 17.8651 43.1609 17.702Z" fill="#FFFFFE"/>
<path d="M60.7135 21.1174H63.9909L62.3512 17.0874L60.7135 21.1174Z" fill="#FFFFFE"/>
</g>
<defs>
<clipPath id="clip0_0_212">
<rect width="84" height="56" rx="8" fill="white"/>
</clipPath>
</defs>
</svg>
