<svg width="84" height="56" viewBox="0 0 84 56" fill="none" xmlns="http://www.w3.org/2000/svg">
<g clip-path="url(#clip0_0_148)">
<path d="M8 0.5H76C80.1421 0.5 83.5 3.85786 83.5 8V48C83.5 52.1421 80.1421 55.5 76 55.5H8C3.85786 55.5 0.5 52.1421 0.5 48V8C0.5 3.85786 3.85786 0.5 8 0.5Z" fill="white"/>
<path d="M8 0.5H76C80.1421 0.5 83.5 3.85786 83.5 8V48C83.5 52.1421 80.1421 55.5 76 55.5H8C3.85786 55.5 0.5 52.1421 0.5 48V8C0.5 3.85786 3.85786 0.5 8 0.5Z" stroke="#C2D2F4"/>
<path d="M8 0.5H76C80.1421 0.5 83.5 3.85786 83.5 8V48C83.5 52.1421 80.1421 55.5 76 55.5H8C3.85786 55.5 0.5 52.1421 0.5 48V8C0.5 3.85786 3.85786 0.5 8 0.5Z" stroke="#B7C6E7"/>
<path d="M40.8808 18.6588V24.5779H44.531C45.3414 24.602 46.1246 24.2838 46.6884 23.7012C47.5247 22.8414 47.7621 21.5632 47.2904 20.4604C46.8187 19.3577 45.7304 18.6466 44.531 18.6575H40.8808V18.6588ZM40.8808 26.6614V33.5275H38.7002V16.5753H44.4835C45.8775 16.546 47.2256 17.0744 48.2284 18.0432C49.2259 18.9692 49.7927 20.2687 49.7927 21.6298C49.7927 22.9908 49.2259 24.2904 48.2284 25.2164C47.2222 26.1772 45.8742 26.6968 44.4835 26.66H40.8808V26.6614Z" fill="#5F6369"/>
<path d="M51.9966 29.976C51.9935 30.5387 52.2631 31.0681 52.7199 31.3966C53.2024 31.7756 53.8009 31.9763 54.4143 31.9648C55.3342 31.9632 56.2161 31.5974 56.867 30.9473C57.5528 30.3421 57.9455 29.4714 57.9451 28.5567C57.1153 27.9744 56.1127 27.6906 55.1008 27.7517C54.3129 27.7231 53.5365 27.9473 52.8852 28.3916C52.3387 28.7341 52.0039 29.331 51.9966 29.9759V29.976ZM54.8178 21.5472C56.2087 21.4701 57.5758 21.9325 58.6346 22.8379C59.5918 23.7591 60.1017 25.0506 60.0322 26.3772V33.5275H57.9465V31.9175H57.8516C57.0854 33.1693 55.7165 33.9249 54.249 33.9063C53.0739 33.9439 51.9275 33.5383 51.0376 32.7698C50.2008 32.0659 49.7262 31.022 49.7458 29.9287C49.7072 28.8093 50.2154 27.741 51.1081 27.0645C52.1654 26.308 53.4478 25.9322 54.7462 25.9984C55.8559 25.9555 56.9579 26.2002 57.9451 26.7087V26.2109C57.9504 25.465 57.6196 24.7564 57.0445 24.2815C56.4663 23.7612 55.7132 23.4781 54.9355 23.4887C53.7689 23.4615 52.6727 24.0452 52.044 25.0283L50.1233 23.8201C51.1888 22.3005 52.9648 21.4405 54.8177 21.5472" fill="#5F6369"/>
<path d="M72.0004 21.9272L64.7231 38.6415H62.4736L65.1745 32.7933L60.3862 21.9272H62.7579L66.217 30.2595H66.2644L69.6312 21.9272H72.0004Z" fill="#5F6369"/>
<path d="M32.0694 25.1813C32.0702 24.5175 32.014 23.8548 31.9014 23.2006H22.7051V26.9523H27.9723C27.7541 28.1635 27.0505 29.2329 26.0245 29.9126V32.3491H29.1681C31.105 30.4775 32.159 27.8733 32.0692 25.1813" fill="#547DBE"/>
<path d="M22.7054 34.7005C25.0805 34.7674 27.3917 33.9265 29.1686 32.3491L26.025 29.9125C24.492 30.894 22.5925 31.1151 20.875 30.5119C19.1576 29.9087 17.8135 28.5483 17.2309 26.8238H13.9926V29.3335C15.6496 32.6249 19.0204 34.7012 22.7054 34.7005" fill="#34A751"/>
<path d="M17.2309 26.8237C16.8227 25.6143 16.8227 24.3044 17.2309 23.095V20.5854H13.9925C12.6074 23.337 12.6074 26.5819 13.9925 29.3334L17.2309 26.8237Z" fill="#F7BA16"/>
<path d="M22.7054 19.0742C24.0958 19.0513 25.4395 19.5761 26.4463 20.5353V20.5367L29.2295 17.7564C27.4641 16.0997 25.1262 15.1902 22.7054 15.2183C19.0204 15.2177 15.6496 17.2941 13.9926 20.5855L17.2309 23.0952C18.0064 20.7208 20.2078 19.1039 22.7054 19.0742Z" fill="#E84334"/>
</g>
<defs>
<clipPath id="clip0_0_148">
<rect width="84" height="56" rx="8" fill="white"/>
</clipPath>
</defs>
</svg>
