<svg width="84" height="56" viewBox="0 0 84 56" fill="none" xmlns="http://www.w3.org/2000/svg">
<g clip-path="url(#clip0_0_204)">
<path d="M85.2924 0H-0.86145V56H85.2924V0Z" fill="#272622"/>
<path d="M52.7689 11.4153C43.5073 11.4153 35.9689 18.7384 35.9689 28C35.9689 37.2615 43.5073 44.5846 52.5535 44.5846C61.5996 44.5846 69.1381 37.0461 69.1381 28C69.3535 18.7384 61.815 11.4153 52.7689 11.4153Z" fill="#F79E1B"/>
<path d="M32.0921 11.4153C23.0459 11.4153 15.5074 18.7384 15.5074 28C15.5074 37.2615 23.0459 44.5846 32.0921 44.5846C41.1382 44.5846 48.8921 37.2615 48.8921 28C48.8921 18.7384 41.3536 11.4153 32.0921 11.4153Z" fill="#EB001B"/>
<path d="M48.892 27.9999C48.892 22.8307 46.5228 18.0922 42.4305 14.8615C35.1074 20.4615 34.0304 31.0153 39.6305 38.123C40.492 39.1999 41.3535 40.0615 42.4305 40.923C46.5228 37.9076 48.892 33.1691 48.892 27.9999Z" fill="#FF5F00"/>
</g>
<defs>
<clipPath id="clip0_0_204">
<rect width="84" height="56" rx="8" fill="white"/>
</clipPath>
</defs>
</svg>
