<svg width="84" height="56" viewBox="0 0 84 56" fill="none" xmlns="http://www.w3.org/2000/svg">
<g clip-path="url(#clip0_0_167)">
<path d="M84 0H0V56H84V0Z" fill="#F3F6F9"/>
<path d="M84 0H0V56H84V0Z" fill="#FA82A0"/>
<path d="M30.1731 37.5939C30.3276 43.7855 35.4635 48.6844 41.6555 48.5464H41.8322C50.4881 48.5464 54.1978 43.4235 54.9044 35.8274C55.2755 34.0208 54.8222 32.1429 53.6678 30.7045C53.3076 30.2616 52.8105 29.9509 52.2546 29.8212L50.8414 29.4679L54.1978 12.8626C54.5234 10.9808 53.3822 9.15497 51.548 8.62298C49.5102 8.12592 47.433 9.27996 46.7784 11.2727L43.7753 21.6952L41.3022 11.4494C41.1174 10.495 40.5406 9.66184 39.7123 9.15292C38.8711 8.62528 37.8611 8.43592 36.8859 8.62298C35.9242 8.8787 35.104 9.50701 34.6068 10.3689C34.1095 11.2309 33.9761 12.2554 34.2361 13.2159L35.6493 24.875C34.6115 23.6126 32.8007 23.3108 31.4096 24.1684L31.2329 24.345C29.7002 25.5923 29.3232 27.7794 30.3497 29.4679C29.4686 29.4799 28.6339 29.8651 28.0532 30.5278L27.8765 30.7045C26.5154 32.4619 26.8313 34.9891 28.5831 36.3574L30.1731 37.5939ZM52.0779 31.4111C52.2545 31.4111 52.4312 31.5878 52.6078 31.7644C53.306 32.9317 53.557 34.3125 53.3144 35.6508C52.7845 42.7169 49.4281 46.9565 41.832 46.9565C37.1008 47.0627 32.9558 43.8059 31.9397 39.1838L33.1763 40.4204C34.5589 41.7453 36.74 41.7453 38.1226 40.4204L38.2992 40.2437C39.3371 39.1471 39.551 37.5069 38.8292 36.1807C39.0058 36.1807 39.0058 36.0041 39.1825 36.0041L39.3591 35.8274C39.7124 35.4741 40.0657 35.2975 40.2424 34.7675C40.8335 35.1365 41.4955 35.3772 42.1856 35.4741L44.3054 36.0041C42.5332 37.0814 41.5108 39.0581 41.6556 41.127C41.7244 41.523 41.991 41.8562 42.3622 42.0102C42.7582 41.9415 43.0915 41.6749 43.2455 41.3036C43.1292 39.5629 44.119 37.9368 45.7186 37.2407C46.4478 36.9517 47.2328 36.831 48.0151 36.8873H48.1918C49.2516 37.064 49.4283 35.6508 48.545 35.2975L42.5389 33.8842C41.8229 33.7719 41.1511 33.4666 40.5957 33.001C40.5957 32.8243 40.419 32.8243 40.2424 32.8243C39.5917 32.1683 39.4481 31.1632 39.8891 30.3512C40.0718 29.6943 40.627 29.2085 41.3023 29.1146C41.7568 28.938 42.261 28.938 42.7155 29.1146H43.0688L52.0781 31.4111H52.0779ZM37.4159 10.0362C37.9718 9.89406 38.5623 10.0253 39.0057 10.3895C39.5134 10.6879 39.8433 11.2156 39.889 11.8027L42.892 24.875V25.2283L43.0686 25.4049L43.2453 25.5816H43.7752C43.9519 25.5816 43.9519 25.5816 43.9519 25.4049L44.1285 25.2283V25.0517L48.015 11.8027C48.1731 11.2133 48.5619 10.7125 49.0938 10.4133C49.6256 10.1142 50.2556 10.0419 50.8414 10.2128C51.3574 10.3523 51.7967 10.6916 52.0619 11.1558C52.3271 11.6199 52.3965 12.1706 52.2546 12.686L48.8982 29.2913L42.892 27.8781H42.5386C41.8431 27.7014 41.1144 27.7014 40.4188 27.8781C39.628 28.0039 38.9246 28.4516 38.4756 29.1146L37.5925 27.3482L35.826 13.0394V12.8626C35.6318 11.665 36.2915 10.4922 37.4159 10.0362ZM32.1163 25.5816C33.3528 24.875 34.4128 25.2283 35.4727 26.8181L36.3559 28.0547V28.2314L38.1225 30.8812C37.8882 31.9934 38.1458 33.1526 38.8291 34.0609C38.6524 34.2375 38.4757 34.5909 38.2991 34.7675L38.1225 34.9441C37.2406 35.51 36.0691 35.2757 35.4727 34.4142L32.1163 29.2913C31.0564 27.7014 31.233 26.1115 32.1163 25.5816ZM29.1131 31.5878C29.7388 30.8786 30.7869 30.7288 31.5862 31.2345L34.0593 34.9442C34.6711 35.919 35.735 36.5175 36.8858 36.534C37.5924 37.276 37.5924 38.4419 36.8858 39.1838C36.1438 39.8904 34.9779 39.8904 34.236 39.1838L29.9963 34.9442C28.5832 33.8842 28.4066 32.2944 29.1131 31.5878Z" fill="white"/>
</g>
<defs>
<clipPath id="clip0_0_167">
<rect width="84" height="56" rx="8" fill="white"/>
</clipPath>
</defs>
</svg>
