<svg width="84" height="56" viewBox="0 0 84 56" fill="none" xmlns="http://www.w3.org/2000/svg">
<g clip-path="url(#clip0_0_173)">
<path d="M84 0H0V56H84V0Z" fill="#F3F6F9"/>
<path d="M80.5248 0.394592H3.85491C1.6781 0.394592 -0.0865479 2.15925 -0.0865479 4.33605V46.8522C-0.0865479 49.029 1.6781 50.7936 3.85491 50.7936H80.5248C82.7016 50.7936 84.4663 49.029 84.4663 46.8522V4.33605C84.4663 2.15925 82.7016 0.394592 80.5248 0.394592Z" fill="white"/>
<path d="M59.1527 -0.000366211C55.9171 0.217236 53.1399 2.38015 52.1399 5.46138L42.9255 51.4998C42.5142 52.7579 42.7325 53.4215 43.5004 54.5001C44.2682 55.5788 45.1119 55.9749 46.4367 56.0001H84.0003V-0.000267744" fill="#01798A"/>
<path d="M35.9994 -0.00012207H-0.000244141L0.000464618 56.0004L35.8319 55.9418C38.0087 55.9418 39.7733 54.1772 39.7733 52.0004V4.33605C39.7733 2.15924 38.1762 -0.00012207 35.9994 -0.00012207Z" fill="#DC1F2B"/>
<path d="M53.9991 5.5C54.9288 2.46303 57.6194 0.29991 60.7884 0.0417618L52.8405 0.0362252L34.1017 0.033145C30.91 0.269856 28.1687 2.80315 27.2371 5.86144L17.7811 51.5003C17.3665 52.7427 17.5622 54.1075 18.3092 55.1837C19.0562 56.2599 20.2672 56.9217 21.5774 56.9698H48.3204C47.0101 56.9218 45.799 56.2601 45.0517 55.1839C44.3045 54.1078 44.1084 52.7429 44.5224 51.5003L53.9991 5.5Z" fill="#1A4580"/>
<path d="M35.7057 31.3412H36.0378C36.2841 31.373 36.5247 31.2508 36.6444 31.0332L37.5074 29.7296H39.8183L39.3364 30.587H42.1073L41.7558 31.9007H38.4588C38.1829 32.419 37.6363 32.7354 37.0495 32.7163H35.3321L35.7056 31.3412H35.7057ZM35.3263 33.224H41.3969L41.0099 34.651H38.5685L38.196 36.0285H40.5717L40.1847 37.4554H37.809L37.2572 39.4908C37.1205 39.8311 37.3002 39.984 37.7933 39.9493H39.7294L39.3707 41.2753H35.6534C34.9488 41.2753 34.707 40.8679 34.9281 40.0529L35.6337 37.4554H34.1151L34.5009 36.0285H36.0197L36.3919 34.651H34.9402L35.3262 33.224H35.3263ZM45.0157 29.7198L44.9201 30.5552C45.557 30.0744 46.312 29.7746 47.1052 29.6874H50.9484L49.4787 35.0573C49.3568 35.6712 48.8343 35.9776 47.9111 35.9765H43.5551L42.5348 39.7472C42.476 39.9493 42.5591 40.0529 42.7789 40.0529H43.636L43.3209 41.2233H41.142C40.3056 41.2233 39.9569 40.9687 40.0957 40.4595L42.9789 29.7197H45.0157L45.0157 29.7198ZM48.2701 31.2377L44.8399 31.2378L44.4296 32.6867C44.8869 32.4007 45.4162 32.2511 45.9555 32.2555C46.9075 32.2405 47.9942 32.2555 47.9942 32.2555L48.2701 31.2377ZM47.0274 34.5991C47.281 34.6338 47.4229 34.5325 47.4399 34.2934L47.6498 33.5296H44.2145L43.9263 34.5991H47.0274ZM44.7102 36.334H46.6903L46.6535 37.1989H47.1808C47.4472 37.1989 47.5793 37.1128 47.5793 36.9429L47.7353 36.3834H49.3811L49.1613 37.1989C48.9927 37.8671 48.3691 38.3181 47.6817 38.2688H46.6269L46.622 39.7472C46.6026 39.984 46.8148 40.1047 47.2517 40.1047H48.2432L47.9232 41.2753H45.5452C44.8787 41.3073 44.5518 40.9867 44.5587 40.3067L44.7101 36.3339L44.7102 36.334Z" fill="white"/>
<path d="M20.7148 22.5655C20.5075 23.7882 19.8438 24.8865 18.8578 25.6386C17.7735 26.3898 16.4732 26.7654 15.1553 26.7081C14.0029 26.8083 12.863 26.409 12.0252 25.6114C11.5537 25.0624 11.3069 24.3556 11.3342 23.6324C11.3373 23.2738 11.3766 22.9163 11.4515 22.5655L13.0616 14.7288H15.4934L13.9052 22.4768C13.8598 22.6715 13.8377 22.8709 13.8394 23.0708C13.8222 23.42 13.9255 23.7645 14.1322 24.0466C14.4824 24.4508 15.0062 24.6609 15.5386 24.6109C16.1984 24.6392 16.8482 24.4429 17.3819 24.054C17.8761 23.6609 18.2077 23.0993 18.3134 22.4768L19.9066 14.7289L22.3261 14.7288L20.7148 22.5655Z" fill="white"/>
<path d="M30.9276 19.4826H32.8321L31.3402 26.4766H29.4395L30.9276 19.4826ZM31.5271 16.9346H33.4486L33.0896 18.6323H31.1683L31.5271 16.9346Z" fill="white"/>
<path d="M34.5178 25.9441C34.0043 25.428 33.7313 24.7197 33.7657 23.9924C33.7664 23.8335 33.7754 23.6747 33.7926 23.5167C33.811 23.3392 33.8342 23.1667 33.8671 23.0066C34.0379 21.9703 34.5469 21.0197 35.3149 20.3031C36.0458 19.6381 37.0042 19.2791 37.9921 19.3001C38.739 19.2599 39.4708 19.5209 40.0236 20.0247C40.5368 20.5498 40.8071 21.2656 40.7693 21.9988C40.7677 22.161 40.7579 22.323 40.74 22.4842C40.718 22.6641 40.6915 22.8366 40.6605 23.0067C40.4928 24.0314 39.9851 24.9698 39.2191 25.6708C38.4863 26.3252 37.5326 26.6774 36.5504 26.6563C35.8052 26.6978 35.0741 26.4416 34.5177 25.9442L34.5178 25.9441ZM38.1472 24.5591C38.5335 24.0789 38.7832 23.5034 38.8699 22.8933C38.8919 22.7775 38.9113 22.6567 38.9234 22.5359C38.9347 22.4262 38.9404 22.316 38.9405 22.2056C38.9637 21.8418 38.8466 21.4828 38.6133 21.2026C38.372 20.9541 38.034 20.8236 37.6883 20.8454C37.1949 20.8308 36.7206 21.0367 36.3943 21.4071C36.0046 21.8976 35.7521 22.4827 35.6628 23.1027C35.6421 23.2184 35.625 23.3344 35.6092 23.4477C35.5979 23.5549 35.5934 23.6627 35.5957 23.7705C35.5724 24.1314 35.6896 24.4873 35.9229 24.7636C36.1676 25.0088 36.5063 25.1364 36.8519 25.1135C37.3444 25.1292 37.8186 24.9262 38.1472 24.559" fill="white"/>
<path d="M53.1267 31.4004L53.5859 29.769H55.9078L55.8076 30.3677C56.4452 30.044 57.1372 29.8411 57.8486 29.769H60.7197L60.2634 31.4004H59.8116L57.6458 39.0943H58.0976L57.6679 40.6222H57.2162L57.0283 41.2851H54.7797L54.9673 40.6222H50.5312L50.9636 39.0943H51.408L53.5758 31.4004H53.1267ZM55.6318 31.4004L55.0408 33.4826C55.6496 33.2516 56.2805 33.0832 56.9234 32.9801C57.116 32.253 57.3676 31.4004 57.3676 31.4004H55.6318ZM54.7672 34.4587L54.1742 36.6397C54.769 36.3417 55.4064 36.138 56.0638 36.0359C56.2859 35.193 56.5082 34.4587 56.5082 34.4587H54.7672ZM55.2018 39.0943L55.6462 37.5122H53.9131L53.4663 39.0943H55.2018ZM60.8175 29.668H63.0004L63.093 30.481C63.0785 30.688 63.2004 30.7868 63.4593 30.7868H63.8449L63.4547 32.1643H61.8503C61.2376 32.1963 60.9226 31.9599 60.8934 31.4496L60.8175 29.668ZM60.1779 32.6228L67.2486 32.6227L66.8337 34.1015H64.5825L64.1965 35.4764H66.4454L66.0279 36.9527H63.5231L62.9564 37.8179H64.1824L64.4655 39.5501C64.4994 39.7226 64.6508 39.8064 64.9097 39.8064H65.2905L64.8903 41.2331H63.5426C62.8442 41.2678 62.4832 41.0312 62.4536 40.5212L62.1287 38.939L61.0132 40.6222C60.788 41.0771 60.3018 41.3422 59.7974 41.2851H57.739L58.1394 39.858H58.7816C59.0523 39.8532 59.3047 39.7207 59.4626 39.5008L61.2085 36.9526H58.9573L59.3745 35.4763H61.8162L62.2044 34.1014H59.7604L60.1779 32.6227L60.1779 32.6228Z" fill="white"/>
<path d="M22.955 19.4801H24.6725L24.4761 20.4904L24.7226 20.2021C25.2363 19.6205 25.9782 19.292 26.754 19.3026C27.3501 19.249 27.9354 19.4868 28.3252 19.9409C28.6657 20.4656 28.7598 21.1129 28.5828 21.7129L27.6365 26.479H25.8714L26.7259 22.159C26.8254 21.8303 26.7997 21.4765 26.6537 21.1656C26.4751 20.9314 26.1857 20.8096 25.8933 20.8455C25.4701 20.8343 25.059 20.987 24.7458 21.2717C24.4161 21.5903 24.1985 22.007 24.1256 22.4595L23.3382 26.479H21.5693L22.955 19.4801Z" fill="white"/>
<path d="M42.6516 19.4802H44.3706L44.1755 20.4905L44.4192 20.2022C44.9334 19.6211 45.6751 19.2927 46.451 19.3027C47.0467 19.2485 47.6317 19.4864 48.0206 19.941C48.3617 20.4655 48.4555 21.1133 48.2771 21.713L47.3347 26.4791H45.5669L46.4217 22.159C46.5206 21.8304 46.4954 21.4769 46.3508 21.1657C46.1717 20.9328 45.8834 20.8112 45.5916 20.8455C45.1678 20.835 44.7561 20.9876 44.4415 21.2718C44.1113 21.5896 43.8943 22.0068 43.8239 22.4596L43.0329 26.4791H41.2662L42.6515 19.4802" fill="white"/>
<path d="M51.1492 15.1427H56.1398C56.9308 15.091 57.7145 15.3215 58.3515 15.7933C58.8775 16.2711 59.1579 16.9621 59.1137 17.6713V17.6958C59.1137 17.851 59.1035 18.0261 59.089 18.2157C59.0644 18.4031 59.0325 18.5928 58.9914 18.79C58.8048 19.8089 58.2675 20.7305 57.4729 21.3949C56.6855 22.0497 55.689 22.3996 54.6652 22.3807H51.9888L51.1613 26.479H48.8441L51.1492 15.1427V15.1427ZM52.3965 20.4093H54.6162C55.1064 20.4362 55.5909 20.2934 55.9883 20.0051C56.3494 19.6791 56.5873 19.2388 56.6621 18.7582C56.6814 18.6544 56.6936 18.5609 56.7084 18.4747C56.7159 18.3934 56.7255 18.3119 56.7255 18.2333C56.7526 17.8863 56.5902 17.5516 56.3007 17.3583C55.8871 17.1445 55.4221 17.0498 54.9578 17.0847H53.0729L52.3965 20.4092" fill="white"/>
<path d="M69.4851 27.8321C69.028 28.8942 68.4069 29.8779 67.6445 30.7472C66.8662 31.6851 65.6772 32.1815 64.463 32.0756L64.6315 30.8755C66.2793 30.3629 67.1705 28.0536 67.6784 27.031L67.0729 19.4998L68.3475 19.4825H69.4168L69.5317 24.2068L71.5359 19.4825H73.565L69.485 27.8321" fill="white"/>
<path d="M63.8111 20.0517L63.0049 20.6113C62.1862 19.7822 60.9052 19.6241 59.9095 20.2292C57.8876 21.1755 56.1981 28.4332 61.7649 26.0427L62.0822 26.4222L64.2723 26.4789L65.7105 19.8841L63.8111 20.0517ZM62.5657 23.6572C62.2139 24.7046 61.4282 25.3971 60.8129 25.1999C60.1976 25.0077 59.9779 23.9972 60.3343 22.9474C60.6858 21.8975 61.4768 21.2076 62.0871 21.4047C62.7024 21.597 62.9244 22.6073 62.5657 23.6572" fill="white"/>
</g>
<defs>
<clipPath id="clip0_0_173">
<rect width="84" height="56" rx="8" fill="white"/>
</clipPath>
</defs>
</svg>
